<svg version="1.1" id="Layer_1" xmlns="http://www.w3.org/2000/svg" xmlns:xlink="http://www.w3.org/1999/xlink" x="0px" y="0px"
	 width="100%" viewBox="0 0 225 225" enable-background="new 0 0 225 225" xml:space="preserve">
<path fill="#FEFDFE" opacity="1.000000" stroke="none" 
	d="
M226.000000,127.000000 
	C226.000000,159.927658 226.000000,192.855331 226.000000,226.000000 
	C192.646088,226.000000 159.291702,226.000000 125.693985,225.668671 
	C129.320724,224.591446 133.190781,223.845535 137.445923,223.083313 
	C140.941284,222.141388 144.051544,221.215775 147.532562,220.236938 
	C150.013535,219.153397 152.123749,218.123108 154.571442,217.094635 
	C155.981171,216.907715 157.053406,216.718994 158.476883,216.432068 
	C160.896942,215.256012 162.965744,214.178146 165.333679,213.067261 
	C166.107193,212.703186 166.581573,212.372147 167.031128,212.020203 
	C167.006317,211.999283 167.026550,212.060959 167.290741,212.004547 
	C167.763824,211.682205 167.972702,211.416275 168.204727,211.184479 
	C168.227875,211.218597 168.302902,211.252869 168.646027,211.204880 
	C171.656250,209.385193 174.323364,207.613495 177.325806,205.806000 
	C182.226517,201.903473 186.791870,198.036697 191.634888,194.018021 
	C193.379089,192.276291 194.845627,190.686447 196.589081,188.937469 
	C199.686722,184.989105 202.507431,181.199921 205.330017,177.365112 
	C205.331879,177.319489 205.250214,177.278641 205.527527,177.284027 
	C206.132797,176.862961 206.460770,176.436493 207.017303,175.765625 
	C208.231079,173.804916 209.216278,172.088608 210.464325,170.135742 
	C212.906387,165.291550 215.085617,160.683929 217.503815,155.820526 
	C219.235229,150.715363 220.727661,145.865952 222.456863,140.735474 
	C223.392578,136.652588 224.091553,132.850815 224.879730,128.741272 
	C225.312607,127.955688 225.656296,127.477844 226.000000,127.000000 
z"/>
<path fill="#FEFEFE" opacity="1.000000" stroke="none" 
	d="
M1.000000,77.000000 
	C1.000000,51.730152 1.000000,26.460302 1.000000,1.000000 
	C33.687313,1.000000 66.375000,1.000000 99.364655,1.298497 
	C98.685326,2.071540 97.704025,2.546085 96.571182,3.030926 
	C96.209183,3.069266 96.030502,3.159943 95.556915,3.167263 
	C92.154099,3.698205 89.077980,4.375136 85.630157,4.994700 
	C83.839058,5.306852 82.419647,5.676372 80.631134,6.047187 
	C77.829353,6.987061 75.396675,7.925639 72.598145,8.921478 
	C68.808418,10.600521 65.384552,12.222301 61.661674,13.890692 
	C60.882397,14.274052 60.402134,14.610801 59.961121,14.963487 
	C60.000374,14.979424 59.948181,14.912680 59.593636,14.939987 
	C55.783920,17.208614 52.328743,19.449932 48.560097,21.768135 
	C47.434284,22.495659 46.621941,23.146301 45.527473,23.891861 
	C44.717834,24.557379 44.190319,25.127975 43.363594,25.806013 
	C41.985489,26.907961 40.906601,27.902470 39.529522,29.040668 
	C36.674633,31.720474 34.117935,34.256592 31.259514,36.857124 
	C30.552128,37.583004 30.146467,38.244465 29.545065,39.003544 
	C29.127459,39.307240 28.986738,39.558735 28.611536,39.998161 
	C25.185808,44.403503 22.075708,48.666321 18.702404,53.149220 
	C16.867725,56.571747 15.296251,59.774197 13.354160,62.989155 
	C7.647283,63.839424 8.664536,67.346138 9.746627,71.137619 
	C9.295422,71.983574 8.782489,72.546059 7.892879,73.084167 
	C5.344135,74.373184 3.172068,75.686592 1.000000,77.000000 
z"/>
<path fill="#FEFDFE" opacity="1.000000" stroke="none" 
	d="
M73.000000,226.000000 
	C49.061558,226.000000 25.123112,226.000000 1.000000,226.000000 
	C1.000000,193.312668 1.000000,160.625000 1.208290,127.471619 
	C1.416581,127.005913 1.831332,127.045357 1.881849,127.362198 
	C2.007825,128.098175 2.083284,128.517319 2.124783,129.268372 
	C2.362834,130.416931 2.634845,131.233566 2.877476,132.407211 
	C3.266398,133.847458 3.684702,134.930710 3.997570,136.379913 
	C3.970234,137.497803 4.048334,138.249741 4.081043,139.359741 
	C5.059969,142.811432 6.084287,145.905029 7.096306,149.371155 
	C9.018090,154.236252 10.952174,158.728836 12.914986,163.496674 
	C13.266032,164.195557 13.588352,164.619141 13.963598,165.397156 
	C19.573757,173.534042 25.130989,181.316513 30.849625,189.401962 
	C32.461418,191.277573 33.692379,193.158646 35.398235,194.372192 
	C45.562843,201.603333 55.837143,208.680283 66.019592,216.194244 
	C65.682121,218.151733 65.399673,219.723969 65.117218,221.296204 
	C65.502335,221.380615 65.887451,221.465027 66.272568,221.549438 
	C66.880135,219.947693 67.487701,218.345963 68.413025,216.800735 
	C69.488754,217.229767 70.246742,217.602264 71.002792,218.385284 
	C71.667229,221.197205 72.333618,223.598602 73.000000,226.000000 
z"/>
<path fill="#FDFEFE" opacity="1.000000" stroke="none" 
	d="
M149.000000,1.000002 
	C174.603073,1.000000 200.206146,1.000000 226.000000,1.000000 
	C226.000000,34.020649 226.000000,67.041664 225.666260,100.323746 
	C224.621857,97.257492 223.911209,93.930183 223.220200,90.221840 
	C222.412598,86.585953 221.585342,83.331108 220.746613,79.790489 
	C220.464951,79.001686 220.194778,78.498650 219.938660,77.673805 
	C219.589279,76.580772 219.225845,75.809563 218.867706,74.670525 
	C213.583267,64.532349 208.293533,54.762001 202.977600,44.667900 
	C202.538773,43.889256 202.126114,43.434361 201.546692,42.882210 
	C201.189636,42.603359 201.052994,42.387764 200.982269,41.684353 
	C200.994385,40.068066 201.190994,38.862129 200.946167,37.753704 
	C200.613052,36.245617 200.083145,33.661068 199.388962,33.576374 
	C197.738037,33.374969 195.941010,34.371376 193.961151,34.682182 
	C191.059708,31.797268 188.690613,28.716215 185.678085,26.516268 
	C179.987473,22.360647 173.926834,18.711731 168.014160,14.481806 
	C167.207413,10.361669 164.933914,9.390790 158.412598,10.104546 
	C157.060226,9.629656 156.036896,9.204304 154.948608,8.467585 
	C154.800568,6.621069 154.717484,5.085920 154.660477,4.032567 
	C152.842484,3.058586 150.921234,2.029295 149.000000,1.000002 
M158.565414,7.295346 
	C158.294006,7.010940 158.022614,6.726534 157.751205,6.442122 
	C157.633499,6.554641 157.407272,6.758798 157.413742,6.766457 
	C157.667053,7.066412 157.941528,7.348480 158.565414,7.295346 
z"/>
<path fill="#679CFE" opacity="1.000000" stroke="none" 
	d="
M95.883621,3.313253 
	C96.030502,3.159943 96.209183,3.069266 97.031517,3.024514 
	C100.095589,2.338538 102.547791,1.669270 105.000000,1.000000 
	C110.354927,1.000000 115.709862,1.000000 121.402420,1.311266 
	C122.630898,2.765068 123.521744,3.907604 124.237549,4.825640 
	C123.759956,4.945898 122.569778,5.245584 121.149620,5.603181 
	C122.467545,8.056504 123.172607,10.510186 124.744789,12.113684 
	C136.499664,24.102747 148.370972,35.979950 160.375153,47.719017 
	C161.722839,49.036942 164.126648,49.274883 165.829956,50.292156 
	C161.201340,54.667057 160.733704,58.311062 164.075302,62.601631 
	C166.721466,65.999260 170.475800,65.995796 175.914551,62.958397 
	C191.783783,79.297203 207.584625,95.268333 223.624268,111.480827 
	C224.763107,109.812241 225.381546,108.906113 226.000000,108.000000 
	C226.000000,114.021156 226.000000,120.042305 226.000000,126.531731 
	C225.656296,127.477844 225.312607,127.955688 224.607697,128.905991 
	C223.335297,130.663239 222.424118,131.948029 221.512955,133.232834 
	C223.657791,127.733360 219.810974,125.439926 216.402161,122.833542 
	C215.392349,122.061455 214.809311,120.756378 213.893631,119.831207 
	C211.273041,117.183472 208.582123,114.605377 205.777924,111.664383 
	C204.005981,108.202812 202.374969,105.076752 200.701904,101.748611 
	C200.534424,101.266479 200.318680,101.114388 199.836472,100.988068 
	C199.660324,100.885895 199.255386,100.929291 199.065735,100.728317 
	C198.601135,100.282280 198.326202,100.037224 198.058197,99.569756 
	C198.065125,99.347351 197.836060,98.965820 197.803955,98.643112 
	C195.886490,96.859512 194.001160,95.398621 191.940811,93.712906 
	C191.238327,93.299957 190.710861,93.111816 189.990723,92.676125 
	C189.222610,92.191826 188.647156,91.955086 187.832382,91.478233 
	C183.033646,89.266922 178.474243,87.295738 173.955734,84.979233 
	C174.706116,83.467186 175.415619,82.300468 176.099716,81.175545 
	C171.247803,75.619766 166.698196,69.967453 161.665558,64.784119 
	C157.454483,60.446934 152.502243,56.836781 148.194763,52.584034 
	C141.874054,46.343628 135.939148,39.713562 129.650681,33.439098 
	C121.827103,25.632933 113.852142,17.976334 105.832611,10.371078 
	C104.653809,9.253167 102.847527,8.090558 101.368004,8.135963 
	C97.742355,8.247231 96.099319,6.759264 95.883621,3.313253 
z"/>
<path fill="#5DA4FE" opacity="1.000000" stroke="none" 
	d="
M166.040695,50.013653 
	C164.126648,49.274883 161.722839,49.036942 160.375153,47.719017 
	C148.370972,35.979950 136.499664,24.102747 124.744789,12.113684 
	C123.172607,10.510186 122.467545,8.056504 121.149620,5.603181 
	C122.569778,5.245584 123.759956,4.945898 124.237549,4.825640 
	C123.521744,3.907604 122.630898,2.765068 121.870026,1.311266 
	C122.750000,1.000000 123.500000,1.000000 124.846436,1.325240 
	C130.646866,2.716813 135.850861,3.783145 141.038177,5.274282 
	C140.046982,10.843405 143.802521,13.415917 146.788452,16.468044 
	C155.918854,25.800854 165.058670,35.126293 174.053894,44.588581 
	C177.664352,48.386505 180.167450,53.985229 184.488068,56.188377 
	C191.337097,59.680786 195.343124,65.669464 200.655884,70.460991 
	C206.654022,75.870651 212.356659,81.607971 217.844315,86.873215 
	C219.217453,90.190407 220.516754,93.329170 221.816040,96.467926 
	C222.102158,96.425735 222.388290,96.383537 222.674408,96.341347 
	C222.849792,94.428520 223.025162,92.515701 223.200546,90.602875 
	C223.911209,93.930183 224.621857,97.257492 225.666260,100.792404 
	C226.000000,103.041664 226.000000,105.083336 226.000000,107.562500 
	C225.381546,108.906113 224.763107,109.812241 223.624268,111.480827 
	C207.584625,95.268333 191.783783,79.297203 176.071747,62.663555 
	C178.015076,58.711311 178.210037,55.421349 175.765762,52.379250 
	C173.184311,49.166393 169.794739,48.699947 166.040695,50.013653 
z"/>
<path fill="#C734FE" opacity="1.000000" stroke="none" 
	d="
M111.000000,226.000000 
	C107.969406,226.000000 104.938812,226.000000 101.343147,225.687790 
	C99.537331,224.640366 98.296585,223.905136 97.005569,222.833694 
	C96.304214,221.999390 95.653137,221.501312 95.001030,221.001617 
	C95.000000,221.000000 94.996338,220.996338 94.998909,220.685608 
	C95.334930,219.249100 95.668373,218.123337 95.966980,216.653259 
	C94.703583,214.788086 93.588753,213.156097 92.228333,211.764114 
	C82.179817,201.482513 72.082359,191.248734 61.835228,180.686218 
	C60.650211,179.855606 59.630257,179.338699 58.686203,178.469574 
	C60.215431,177.078964 61.668758,176.040604 63.469780,175.041595 
	C67.882301,178.570724 72.166428,181.839127 75.962791,185.599930 
	C82.344841,191.922165 88.468788,198.508865 94.604584,205.074692 
	C100.709808,211.607788 106.695946,218.252167 112.707558,224.818542 
	C112.797180,224.756531 111.898590,225.378265 111.000000,226.000000 
z"/>
<path fill="#C13AFE" opacity="1.000000" stroke="none" 
	d="
M111.454109,226.000000 
	C111.898590,225.378265 112.797180,224.756531 112.707558,224.818542 
	C106.695946,218.252167 100.709808,211.607788 94.604584,205.074692 
	C88.468788,198.508865 82.344841,191.922165 75.962791,185.599930 
	C72.166428,181.839127 67.882301,178.570724 63.509872,174.716400 
	C63.857655,173.235077 64.513031,172.118332 65.502640,170.960236 
	C66.784477,170.762314 68.141617,170.126266 68.612206,170.528198 
	C71.346123,172.863266 73.909477,175.404404 76.458519,177.948013 
	C80.225365,181.706833 83.865158,185.594818 87.682632,189.300522 
	C91.629799,193.132080 95.788986,196.745193 99.738029,200.574921 
	C104.354126,205.051575 109.177490,209.380890 113.275383,214.303238 
	C116.232231,217.855026 122.396317,219.530029 121.000000,226.000000 
	C117.969406,226.000000 114.938812,226.000000 111.454109,226.000000 
z"/>
<path fill="#C637FE" opacity="1.000000" stroke="none" 
	d="
M1.000000,121.000000 
	C1.000000,117.969406 1.000000,114.938812 1.309024,111.325439 
	C2.337985,110.808197 3.332911,110.592438 3.733778,110.984337 
	C6.603451,113.789764 8.696539,117.125481 12.355547,119.482712 
	C14.735578,121.015984 20.195787,123.011955 17.757910,127.499290 
	C20.373901,129.253067 23.831669,130.316422 24.601959,132.381973 
	C25.754187,135.471710 27.246418,136.201492 30.036793,136.347595 
	C37.788898,143.848282 45.505886,151.001999 53.222874,158.155716 
	C52.525574,158.549408 51.828274,158.943100 51.130974,159.336792 
	C50.742783,160.894897 50.354591,162.453003 49.603256,164.003815 
	C47.622128,162.959732 45.763359,162.167160 44.424534,160.847229 
	C34.369595,150.934204 24.491562,140.840485 14.355611,131.012207 
	C12.761664,129.466629 10.144235,128.976578 7.999987,127.607567 
	C7.447553,125.380898 6.895172,123.545128 6.364521,121.781586 
	C4.781820,122.827843 3.896399,123.413155 3.004093,123.655304 
	C2.634957,122.543571 2.272706,121.774994 1.682817,121.008224 
	C1.455179,121.010040 1.000000,121.000000 1.000000,121.000000 
M8.483106,120.586655 
	C8.483106,120.586655 8.417856,120.476761 8.483106,120.586655 
z"/>
<path fill="#C03CFD" opacity="1.000000" stroke="none" 
	d="
M121.399994,226.000000 
	C122.396317,219.530029 116.232231,217.855026 113.275383,214.303238 
	C109.177490,209.380890 104.354126,205.051575 99.738029,200.574921 
	C95.788986,196.745193 91.629799,193.132080 87.682632,189.300522 
	C83.865158,185.594818 80.225365,181.706833 76.458519,177.948013 
	C73.909477,175.404404 71.346123,172.863266 68.612206,170.528198 
	C68.141617,170.126266 66.784477,170.762314 65.444382,170.571732 
	C63.831272,167.685684 62.610661,165.146805 61.762775,162.463394 
	C63.598785,161.676361 65.062073,161.033844 66.517761,160.394669 
	C71.820877,166.276001 76.885406,172.205673 82.288307,177.809113 
	C89.812569,185.612625 97.605087,193.157028 105.252098,200.842865 
	C108.500031,204.107300 111.484367,207.659058 114.922577,210.702866 
	C119.264305,214.546585 123.879372,218.096481 128.541489,221.550461 
	C129.449707,222.223358 131.127838,221.793381 132.424347,222.022186 
	C133.984634,222.297562 135.516617,222.733322 137.060852,223.099640 
	C133.190781,223.845535 129.320724,224.591446 125.225327,225.668671 
	C123.933327,226.000000 122.866661,226.000000 121.399994,226.000000 
z"/>
<path fill="#BF3BFB" opacity="1.000000" stroke="none" 
	d="
M30.001678,136.000610 
	C27.246418,136.201492 25.754187,135.471710 24.601959,132.381973 
	C23.831669,130.316422 20.373901,129.253067 17.757910,127.499290 
	C20.195787,123.011955 14.735578,121.015984 12.355547,119.482712 
	C8.696539,117.125481 6.603451,113.789764 3.733778,110.984337 
	C3.332911,110.592438 2.337985,110.808197 1.309024,110.871338 
	C1.000000,107.638710 1.000000,104.277428 1.301122,100.308884 
	C1.819769,98.839958 2.037294,97.978287 2.485507,97.394455 
	C3.486183,100.034622 4.256170,102.396942 5.393178,105.885277 
	C6.873232,103.309181 7.467455,102.274918 8.159023,101.071213 
	C11.039696,105.300514 13.682431,109.180489 17.032598,114.099091 
	C17.902069,110.962494 18.262381,109.662682 18.755409,107.884102 
	C19.807749,109.292961 20.461784,110.168571 21.135489,111.468155 
	C21.925327,115.613136 21.834946,119.852287 23.684177,122.923615 
	C25.979685,126.736130 29.880203,129.582275 32.951416,133.090454 
	C31.877466,134.223587 30.939573,135.112106 30.001678,136.000610 
z"/>
<path fill="#F1F8FA" opacity="1.000000" stroke="none" 
	d="
M141.054871,4.849477 
	C135.850861,3.783145 130.646866,2.716813 125.221436,1.325240 
	C132.687576,1.000000 140.375168,1.000000 148.531372,1.000002 
	C150.921234,2.029295 152.842484,3.058586 154.660477,4.032567 
	C154.717484,5.085920 154.800568,6.621069 154.718399,8.568100 
	C154.335175,9.220258 154.117188,9.460532 153.547180,9.698350 
	C149.148392,8.080420 145.101639,6.464949 141.054871,4.849477 
z"/>
<path fill="#FAF2FA" opacity="1.000000" stroke="none" 
	d="
M2.254819,97.116608 
	C2.037294,97.978287 1.819769,98.839958 1.301122,99.850815 
	C1.000000,92.645744 1.000000,85.291496 1.000000,77.468620 
	C3.172068,75.686592 5.344135,74.373184 7.820421,73.453560 
	C7.701139,75.539070 7.277637,77.230789 6.600789,79.190674 
	C4.983234,85.344757 3.619027,91.230682 2.254819,97.116608 
z"/>
<path fill="#FEFDFE" opacity="1.000000" stroke="none" 
	d="
M97.055840,223.169922 
	C98.296585,223.905136 99.537331,224.640366 100.889038,225.687790 
	C92.645767,226.000000 84.291534,226.000000 75.694824,225.732101 
	C77.724159,225.015091 79.995964,224.565979 82.305481,224.109406 
	C82.230949,223.603973 82.113808,222.809540 82.409279,222.027267 
	C84.869049,222.429321 86.902466,223.016037 88.966774,223.160141 
	C91.650284,223.347443 94.358345,223.182983 97.055840,223.169922 
z"/>
<path fill="#F9F6F9" opacity="1.000000" stroke="none" 
	d="
M81.996658,222.015106 
	C82.113808,222.809540 82.230949,223.603973 82.305481,224.109406 
	C79.995964,224.565979 77.724159,225.015091 75.226181,225.732101 
	C74.555557,226.000000 74.111107,226.000000 73.333328,226.000000 
	C72.333618,223.598602 71.667229,221.197205 71.319710,218.405792 
	C72.443848,218.251190 73.249123,218.486633 74.391174,218.878479 
	C77.150848,220.028275 79.573753,221.021698 81.996658,222.015106 
z"/>
<path fill="#6B95FE" opacity="1.000000" stroke="none" 
	d="
M104.583336,1.000000 
	C102.547791,1.669270 100.095589,2.338538 97.183044,3.014219 
	C97.704025,2.546085 98.685326,2.071540 99.833313,1.298497 
	C101.388893,1.000000 102.777779,1.000000 104.583336,1.000000 
z"/>
<path fill="#F3C9FF" opacity="1.000000" stroke="none" 
	d="
M1.831332,127.045357 
	C1.831332,127.045357 1.416581,127.005913 1.208290,127.002960 
	C1.000000,126.250000 1.000000,125.500000 1.209631,124.387207 
	C1.419262,124.024414 1.838634,124.046883 1.890279,124.421051 
	C1.905060,125.545265 1.868196,126.295311 1.831332,127.045357 
z"/>
<path fill="#D699EF" opacity="1.000000" stroke="none" 
	d="
M1.838633,124.046883 
	C1.838634,124.046883 1.419262,124.024414 1.209631,124.012207 
	C1.000000,123.250000 1.000000,122.500000 1.000000,121.375000 
	C1.000000,121.000000 1.455179,121.010040 1.714495,121.388870 
	C1.928752,122.527435 1.883693,123.287155 1.838633,124.046883 
z"/>
<path fill="#BB42FE" opacity="1.000000" stroke="none" 
	d="
M137.445923,223.083313 
	C135.516617,222.733322 133.984634,222.297562 132.424347,222.022186 
	C131.127838,221.793381 129.449707,222.223358 128.541489,221.550461 
	C123.879372,218.096481 119.264305,214.546585 114.922577,210.702866 
	C111.484367,207.659058 108.500031,204.107300 105.252098,200.842865 
	C97.605087,193.157028 89.812569,185.612625 82.288307,177.809113 
	C76.885406,172.205673 71.820877,166.276001 66.517761,160.394669 
	C65.062073,161.033844 63.598785,161.676361 61.773094,162.397766 
	C61.410686,162.476639 61.441498,162.352493 61.696091,162.048401 
	C62.095131,160.836975 62.694920,159.555359 62.308079,159.084732 
	C60.229004,156.555359 57.878506,154.251373 55.671986,151.823883 
	C53.374409,149.296188 51.134022,146.716507 48.868629,144.159561 
	C49.182377,143.808395 49.496124,143.457214 49.809872,143.106049 
	C52.552364,143.699356 55.294853,144.292664 58.474331,144.980499 
	C57.748871,143.973938 57.376362,143.457077 57.370636,142.935730 
	C62.443230,144.263092 67.149048,145.594955 72.151886,147.056000 
	C73.051834,147.611481 73.654755,148.037766 74.553421,148.673141 
	C72.427559,149.030212 70.847839,149.295532 69.268120,149.560852 
	C68.974091,150.044571 68.680069,150.528290 68.386040,151.012009 
	C75.521301,151.383469 74.104790,157.076797 75.886894,160.786484 
	C76.286171,159.051529 76.685448,157.316574 77.102165,155.505859 
	C78.726593,156.160660 79.771118,156.581696 81.019569,157.295532 
	C84.843956,161.962967 88.464409,166.337585 92.186661,171.007538 
	C92.838448,171.544006 93.388435,171.785172 93.964417,172.011261 
	C93.990410,171.996201 93.978889,172.055161 94.053146,172.410583 
	C94.939949,173.123062 95.752495,173.480133 96.855415,173.841141 
	C97.759506,174.231705 98.373215,174.618317 98.697151,175.125183 
	C97.274345,175.544846 96.141312,175.844254 94.712807,176.221756 
	C95.272293,177.167633 95.496849,177.819595 95.937088,178.251938 
	C108.637474,190.724335 121.435410,203.098907 134.011566,215.694962 
	C136.422318,218.109512 138.027390,220.778030 142.185776,219.169083 
	C143.502701,218.659515 145.484360,219.867935 147.161819,220.290161 
	C144.051544,221.215775 140.941284,222.141388 137.445923,223.083313 
z"/>
<path fill="#9B64FE" opacity="1.000000" stroke="none" 
	d="
M191.357239,194.169922 
	C186.791870,198.036697 182.226517,201.903473 177.333954,205.457993 
	C177.602432,203.815506 178.198090,202.485260 178.610428,201.564453 
	C169.783447,199.350769 165.907959,191.095993 159.698883,185.895569 
	C153.219864,180.469040 147.831497,173.740295 141.933746,167.546661 
	C140.477921,167.989594 138.786377,168.504227 137.234985,168.721542 
	C140.528168,164.166550 143.681198,159.908890 146.907822,156.026154 
	C148.986801,157.932617 150.992172,159.464172 153.296906,161.141205 
	C161.348862,168.975830 169.257263,176.516281 176.792816,184.412567 
	C180.987549,188.808105 185.644455,192.195831 191.357239,194.169922 
z"/>
<path fill="#926CFE" opacity="1.000000" stroke="none" 
	d="
M191.634888,194.018021 
	C185.644455,192.195831 180.987549,188.808105 176.792816,184.412567 
	C169.257263,176.516281 161.348862,168.975830 153.296509,160.731506 
	C151.589264,150.170853 152.401642,149.035751 161.032028,149.347946 
	C161.601700,150.519073 162.017288,151.455780 162.686005,152.147903 
	C173.419800,163.257187 184.185852,174.335297 195.279083,185.765182 
	C195.143921,185.952713 194.388458,187.000885 193.396942,188.376541 
	C194.738251,188.707855 195.525208,188.902252 196.312164,189.096634 
	C194.845627,190.686447 193.379089,192.276291 191.634888,194.018021 
z"/>
<path fill="#B549FE" opacity="1.000000" stroke="none" 
	d="
M147.532562,220.236938 
	C145.484360,219.867935 143.502701,218.659515 142.185776,219.169083 
	C138.027390,220.778030 136.422318,218.109512 134.011566,215.694962 
	C121.435410,203.098907 108.637474,190.724335 95.937088,178.251938 
	C95.496849,177.819595 95.272293,177.167633 94.712807,176.221756 
	C96.141312,175.844254 97.274345,175.544846 99.086487,175.108826 
	C103.511108,176.001038 107.256630,177.029816 111.062210,178.391541 
	C113.204781,178.959747 115.287285,179.195007 117.928787,179.493423 
	C116.940498,180.741089 116.206482,181.667740 115.472466,182.594391 
	C116.270630,181.935135 117.068794,181.275894 117.866959,180.616638 
	C119.387138,183.386780 120.452927,186.566315 122.511665,188.851181 
	C129.000137,196.052322 135.485062,203.346313 142.747711,209.719711 
	C146.032913,212.602722 148.231415,218.136841 154.233948,217.092804 
	C152.123749,218.123108 150.013535,219.153397 147.532562,220.236938 
z"/>
<path fill="#A25BFE" opacity="1.000000" stroke="none" 
	d="
M137.094833,169.018860 
	C138.786377,168.504227 140.477921,167.989594 141.933746,167.546661 
	C147.831497,173.740295 153.219864,180.469040 159.698883,185.895569 
	C165.907959,191.095993 169.783447,199.350769 178.610428,201.564453 
	C178.198090,202.485260 177.602432,203.815506 176.998627,205.493774 
	C174.323364,207.613495 171.656250,209.385193 168.638580,210.897232 
	C168.126099,210.066345 168.143036,209.314896 167.775864,208.950592 
	C160.863022,202.091675 153.738617,195.437454 147.011292,188.402985 
	C142.098770,183.266174 135.550293,179.362503 133.788986,171.537323 
	C135.015289,170.519714 136.055069,169.769287 137.094833,169.018860 
z"/>
<path fill="#867AFE" opacity="1.000000" stroke="none" 
	d="
M210.201477,170.372299 
	C209.216278,172.088608 208.231079,173.804916 206.734985,175.798553 
	C205.899475,176.476807 205.574860,176.877731 205.250214,177.278656 
	C205.250214,177.278641 205.331879,177.319489 204.896118,177.227478 
	C201.106598,177.348434 198.453842,176.548798 196.591431,173.279251 
	C195.582474,171.507950 193.397614,170.441864 191.889374,168.913422 
	C185.661667,162.602203 179.366211,156.349106 173.378296,149.815598 
	C171.738113,148.025955 171.081375,145.334961 170.244843,142.933258 
	C175.009171,141.172287 179.502014,139.535614 183.996521,138.263000 
	C184.769760,141.022247 184.878815,144.025406 186.424713,145.710022 
	C194.143051,154.120956 202.238602,162.185745 210.201477,170.372299 
M181.483246,140.587097 
	C181.483246,140.587097 181.417877,140.477173 181.483246,140.587097 
z"/>
<path fill="#AA55FE" opacity="1.000000" stroke="none" 
	d="
M133.602463,171.804520 
	C135.550293,179.362503 142.098770,183.266174 147.011292,188.402985 
	C153.738617,195.437454 160.863022,202.091675 167.775864,208.950592 
	C168.143036,209.314896 168.126099,210.066345 168.295441,210.945221 
	C168.302902,211.252869 168.227875,211.218597 167.945190,211.236572 
	C167.450516,211.523331 167.238525,211.792145 167.026550,212.060959 
	C167.026550,212.060959 167.006317,211.999283 166.720169,212.027802 
	C165.967529,212.404327 165.501038,212.752304 165.034546,213.100296 
	C162.965744,214.178146 160.896942,215.256012 158.465332,216.024170 
	C158.253464,214.640686 158.404388,213.566925 158.555313,212.493179 
	C158.107391,212.817123 157.659485,213.141068 157.211578,213.465027 
	C145.448959,201.299423 133.686325,189.133835 122.187500,176.721039 
	C126.168343,174.917404 129.885406,173.360962 133.602463,171.804520 
M161.797394,211.391785 
	C161.793259,211.785797 161.789124,212.179825 161.784988,212.573837 
	C161.948486,212.575409 162.254089,212.587936 162.254944,212.576996 
	C162.285095,212.184952 162.286774,211.790695 161.797394,211.391785 
z"/>
<path fill="#8C73FE" opacity="1.000000" stroke="none" 
	d="
M169.973328,143.057571 
	C171.081375,145.334961 171.738113,148.025955 173.378296,149.815598 
	C179.366211,156.349106 185.661667,162.602203 191.889374,168.913422 
	C193.397614,170.441864 195.582474,171.507950 196.591431,173.279251 
	C198.453842,176.548798 201.106598,177.348434 204.894241,177.273102 
	C202.507431,181.199921 199.686722,184.989105 196.589096,188.937469 
	C195.525208,188.902252 194.738251,188.707855 193.396942,188.376541 
	C194.388458,187.000885 195.143921,185.952713 195.279083,185.765182 
	C184.185852,174.335297 173.419800,163.257187 162.686005,152.147903 
	C162.017288,151.455780 161.601700,150.519073 160.796112,149.076355 
	C159.017624,147.648148 157.511353,146.839737 156.353302,145.860855 
	C161.125458,144.812790 165.549393,143.935181 169.973328,143.057571 
z"/>
<path fill="#7E83FE" opacity="1.000000" stroke="none" 
	d="
M210.464325,170.135742 
	C202.238602,162.185745 194.143051,154.120956 186.424713,145.710022 
	C184.878815,144.025406 184.769760,141.022247 184.275085,138.076477 
	C187.369385,136.024231 190.186768,134.522568 193.059875,133.364731 
	C194.351151,134.695984 195.706253,135.567154 196.800446,136.692093 
	C200.453796,140.447968 203.876663,144.437546 207.652908,148.061386 
	C210.655548,150.942825 214.046371,153.419769 217.264847,156.076309 
	C215.085617,160.683929 212.906387,165.291550 210.464325,170.135742 
z"/>
<path fill="#AE4EFD" opacity="1.000000" stroke="none" 
	d="
M121.923706,176.968246 
	C133.686325,189.133835 145.448959,201.299423 157.211578,213.465027 
	C157.659485,213.141068 158.107391,212.817123 158.555313,212.493179 
	C158.404388,213.566925 158.253464,214.640686 158.114090,216.122360 
	C157.053406,216.718994 155.981171,216.907715 154.571442,217.094620 
	C148.231415,218.136841 146.032913,212.602722 142.747711,209.719711 
	C135.485062,203.346313 129.000137,196.052322 122.511665,188.851181 
	C120.452927,186.566315 119.387138,183.386780 117.866959,180.616638 
	C117.068794,181.275894 116.270630,181.935135 115.472466,182.594391 
	C116.206482,181.667740 116.940498,180.741089 117.928787,179.493423 
	C115.287285,179.195007 113.204781,178.959747 111.489204,178.266235 
	C115.211990,177.528076 118.567848,177.248169 121.923706,176.968246 
z"/>
<path fill="#768CFD" opacity="1.000000" stroke="none" 
	d="
M217.503815,155.820526 
	C214.046371,153.419769 210.655548,150.942825 207.652908,148.061386 
	C203.876663,144.437546 200.453796,140.447968 196.800446,136.692093 
	C195.706253,135.567154 194.351151,134.695984 193.261414,133.089874 
	C196.246674,129.962189 199.086121,127.453209 202.147217,125.214417 
	C208.478897,131.338669 215.989365,135.921066 219.287537,144.365707 
	C220.339401,143.164413 221.279755,142.090500 222.220123,141.016571 
	C220.727661,145.865952 219.235229,150.715363 217.503815,155.820526 
z"/>
<path fill="#6E93FD" opacity="1.000000" stroke="none" 
	d="
M222.456879,140.735474 
	C221.279755,142.090500 220.339401,143.164413 219.287537,144.365707 
	C215.989365,135.921066 208.478897,131.338669 202.159531,125.228577 
	C201.950180,124.972549 201.936432,124.958633 202.171936,124.855652 
	C202.578094,124.464005 202.748764,124.175346 202.922424,123.931320 
	C202.925430,123.975952 202.850723,123.926720 203.132401,123.789810 
	C203.587646,123.074310 203.761215,122.495712 203.958282,121.950371 
	C203.981781,121.983620 203.901398,121.970612 204.185913,121.789337 
	C204.606781,120.962914 204.743118,120.317749 204.882324,119.287094 
	C205.229736,116.601028 205.574295,114.300461 205.918854,111.999893 
	C208.582123,114.605377 211.273041,117.183472 213.893631,119.831207 
	C214.809311,120.756378 215.392349,122.061455 216.402161,122.833542 
	C219.810974,125.439926 223.657791,127.733360 221.512955,133.232834 
	C222.424118,131.948029 223.335297,130.663239 224.518494,129.213745 
	C224.091553,132.850815 223.392578,136.652588 222.456879,140.735474 
z"/>
<path fill="#8C73FE" opacity="1.000000" stroke="none" 
	d="
M205.527527,177.284042 
	C205.574860,176.877731 205.899475,176.476807 206.506424,176.042953 
	C206.460770,176.436493 206.132797,176.862961 205.527527,177.284042 
z"/>
<path fill="#A25BFE" opacity="1.000000" stroke="none" 
	d="
M165.333679,213.067261 
	C165.501038,212.752304 165.967529,212.404327 166.744995,212.048721 
	C166.581573,212.372147 166.107193,212.703186 165.333679,213.067261 
z"/>
<path fill="#A25BFE" opacity="1.000000" stroke="none" 
	d="
M167.290741,212.004547 
	C167.238525,211.792145 167.450516,211.523331 167.922043,211.202438 
	C167.972702,211.416275 167.763824,211.682205 167.290741,212.004547 
z"/>
<path fill="#6B95FE" opacity="1.000000" stroke="none" 
	d="
M95.556915,3.167263 
	C96.099319,6.759264 97.742355,8.247231 101.368004,8.135963 
	C102.847527,8.090558 104.653809,9.253167 105.832611,10.371078 
	C113.852142,17.976334 121.827103,25.632933 129.650681,33.439098 
	C135.939148,39.713562 141.874054,46.343628 148.194763,52.584034 
	C152.502243,56.836781 157.454483,60.446934 161.665558,64.784119 
	C166.698196,69.967453 171.247803,75.619766 176.099716,81.175545 
	C175.415619,82.300468 174.706116,83.467186 173.607544,84.921860 
	C172.133148,84.854279 171.047836,84.498756 169.818024,83.800507 
	C161.778946,79.733986 154.514557,75.354515 151.522919,66.389618 
	C151.353729,65.882645 150.486450,65.193932 150.040253,65.258141 
	C145.483307,65.913841 144.973877,61.293968 142.402893,59.395203 
	C139.036987,56.909367 136.112503,53.825829 132.805847,50.751175 
	C131.686584,50.202396 130.759644,49.901836 129.832687,49.601280 
	C132.075165,45.983894 128.314102,45.014618 126.791878,43.433498 
	C118.914589,35.251446 110.794319,27.303499 102.769066,19.263638 
	C100.094360,16.584055 96.631393,14.285186 95.014656,11.066031 
	C93.280037,7.612157 92.129364,5.266357 87.844200,6.842438 
	C87.496613,6.970282 86.628242,5.682199 86.001862,5.052067 
	C89.077980,4.375136 92.154099,3.698205 95.556915,3.167263 
z"/>
<path fill="#7D83FE" opacity="1.000000" stroke="none" 
	d="
M61.960686,13.844080 
	C65.384552,12.222301 68.808418,10.600521 72.608444,9.342283 
	C71.818008,14.784479 76.138206,17.131250 78.692413,19.907442 
	C86.114601,27.974657 94.035332,35.589622 101.894791,43.244114 
	C104.204933,45.494019 106.962738,47.284283 109.392685,49.463432 
	C109.269997,49.641663 109.078018,50.029232 108.684723,50.000824 
	C106.530907,50.365997 104.770386,50.759583 102.659210,51.156204 
	C100.551178,51.778164 98.793800,52.397083 96.660385,52.971619 
	C94.402756,52.060753 92.102051,51.622726 90.707405,50.258465 
	C81.439407,41.192364 72.239182,32.047325 63.332985,22.629076 
	C61.516296,20.707937 61.041538,17.517824 59.948181,14.912680 
	C59.948181,14.912680 60.000374,14.979424 60.278824,14.955883 
	C61.025078,14.569590 61.492882,14.206836 61.960686,13.844080 
z"/>
<path fill="#857AFE" opacity="1.000000" stroke="none" 
	d="
M59.593636,14.939987 
	C61.041538,17.517824 61.516296,20.707937 63.332985,22.629076 
	C72.239182,32.047325 81.439407,41.192364 90.707405,50.258465 
	C92.102051,51.622726 94.402756,52.060753 96.446091,53.233269 
	C93.620461,55.961117 90.633080,58.382942 87.398605,60.849098 
	C86.823425,60.956505 86.495338,61.019585 85.842201,60.927711 
	C82.912376,58.582722 80.172966,56.532143 77.730515,54.173985 
	C72.436813,49.062984 67.196198,43.888824 62.120693,38.562469 
	C57.615250,33.834343 53.362064,28.865839 48.991196,23.617851 
	C48.947765,22.718590 48.910667,22.204920 48.873566,21.691250 
	C52.328743,19.449932 55.783920,17.208614 59.593636,14.939987 
z"/>
<path fill="#9C62FE" opacity="1.000000" stroke="none" 
	d="
M18.965611,52.929142 
	C22.075708,48.666321 25.185808,44.403503 28.812471,40.283188 
	C30.218925,40.616867 31.108814,40.808052 31.999352,40.999619 
	C32.000000,41.000000 32.000732,41.001221 31.958218,41.375450 
	C30.482821,44.545528 31.139769,46.400742 33.777817,48.389618 
	C37.413136,51.130352 40.566555,54.524395 43.841904,57.725056 
	C48.393772,62.173130 53.005665,66.573181 57.327930,71.238319 
	C60.442352,74.599808 63.126297,78.360123 65.619308,82.004211 
	C62.488152,82.684380 59.739941,83.302887 57.120949,83.641144 
	C57.165501,82.677147 57.304817,81.562500 56.958370,81.382423 
	C55.231041,80.484612 53.053333,80.217445 51.626530,79.021545 
	C47.347164,75.434723 43.249035,71.615318 39.259247,67.704025 
	C35.382259,63.903305 31.596317,59.990814 28.022486,55.906807 
	C25.855377,53.430336 24.216579,50.367882 20.669516,54.157280 
	C20.608511,54.222446 19.555647,53.359177 18.965611,52.929142 
z"/>
<path fill="#768AFE" opacity="1.000000" stroke="none" 
	d="
M109.515381,49.285198 
	C106.962738,47.284283 104.204933,45.494019 101.894791,43.244114 
	C94.035332,35.589622 86.114601,27.974657 78.692413,19.907442 
	C76.138206,17.131250 71.818008,14.784479 72.974304,9.285021 
	C75.396675,7.925639 77.829353,6.987061 80.638657,6.407627 
	C81.112221,7.250455 81.041229,7.898826 81.330551,8.193831 
	C89.410713,16.432753 97.785660,24.401100 105.541092,32.933022 
	C110.190582,38.048023 113.881470,44.034386 117.768463,49.720131 
	C117.373795,49.861542 117.213890,49.911942 116.736717,49.746468 
	C114.118088,49.448795 111.816734,49.366997 109.515381,49.285198 
z"/>
<path fill="#718FFE" opacity="1.000000" stroke="none" 
	d="
M118.003204,49.629112 
	C113.881470,44.034386 110.190582,38.048023 105.541092,32.933022 
	C97.785660,24.401100 89.410713,16.432753 81.330551,8.193831 
	C81.041229,7.898826 81.112221,7.250455 81.007767,6.406331 
	C82.419647,5.676372 83.839058,5.306852 85.630157,4.994699 
	C86.628242,5.682199 87.496613,6.970282 87.844200,6.842438 
	C92.129364,5.266357 93.280037,7.612157 95.014656,11.066031 
	C96.631393,14.285186 100.094360,16.584055 102.769066,19.263638 
	C110.794319,27.303499 118.914589,35.251446 126.791878,43.433498 
	C128.314102,45.014618 132.075165,45.983894 129.832687,49.601280 
	C130.759644,49.901836 131.686584,50.202396 132.477478,50.779686 
	C131.547882,51.736385 130.754364,52.416355 129.656937,53.023731 
	C128.568207,52.735188 127.783394,52.519241 126.708282,52.114243 
	C124.949593,51.300262 123.481209,50.675331 121.848366,49.799770 
	C120.812035,49.620110 119.940155,49.691082 118.795380,49.781914 
	C118.349396,49.744225 118.176300,49.686668 118.003204,49.629112 
z"/>
<path fill="#A35BFD" opacity="1.000000" stroke="none" 
	d="
M18.702404,53.149220 
	C19.555647,53.359177 20.608511,54.222446 20.669516,54.157280 
	C24.216579,50.367882 25.855377,53.430336 28.022486,55.906807 
	C31.596317,59.990814 35.382259,63.903305 39.259247,67.704025 
	C43.249035,71.615318 47.347164,75.434723 51.626530,79.021545 
	C53.053333,80.217445 55.231041,80.484612 56.958370,81.382423 
	C57.304817,81.562500 57.165501,82.677147 56.754639,83.681076 
	C54.159401,84.953651 52.059685,85.906029 49.601559,86.891205 
	C47.873875,87.325806 46.504601,87.727623 45.088089,87.746414 
	C42.223320,84.901566 39.214828,82.623894 36.626873,79.940636 
	C30.726744,73.823250 25.032757,67.507042 19.255016,61.271610 
	C18.936569,61.728832 18.618120,62.186058 18.299673,62.643280 
	C16.878599,63.425690 15.457525,64.208099 13.962019,64.658646 
	C13.833319,63.876743 13.779050,63.426697 13.724780,62.976650 
	C15.296251,59.774197 16.867725,56.571747 18.702404,53.149220 
z"/>
<path fill="#916EFE" opacity="1.000000" stroke="none" 
	d="
M31.561237,36.792709 
	C34.117935,34.256592 36.674633,31.720474 39.805191,29.226437 
	C41.391533,32.637615 44.091476,30.532417 45.999168,31.383911 
	C46.258953,32.868999 46.153736,34.329170 46.831944,35.018005 
	C55.025562,43.340008 63.248043,51.638252 71.659035,59.739159 
	C74.790016,62.754711 78.432442,65.239250 81.746277,68.305588 
	C80.455162,71.481880 79.259407,74.318512 77.921951,76.823608 
	C75.096794,74.069252 72.314484,71.746292 69.747818,69.205490 
	C60.890743,60.437683 51.873337,51.811928 43.413544,42.672443 
	C39.997169,38.981583 36.183659,37.396011 31.561237,36.792709 
z"/>
<path fill="#B34AFE" opacity="1.000000" stroke="none" 
	d="
M6.854136,78.922516 
	C7.277637,77.230789 7.701139,75.539070 8.197099,73.477951 
	C8.782489,72.546059 9.295422,71.983574 10.049153,71.020691 
	C11.179425,69.705269 12.068898,68.790245 12.970895,68.309921 
	C12.163654,73.158569 14.012000,76.486641 17.472317,78.925224 
	C22.896976,82.748154 25.046818,90.345230 32.444042,91.867325 
	C31.741119,93.343437 31.031794,94.832993 30.267874,96.302177 
	C30.213280,96.281807 30.291107,96.195061 29.974573,96.285431 
	C29.486984,96.763489 29.315928,97.151169 29.042068,97.740326 
	C28.715826,98.320534 28.492390,98.699249 28.086918,99.096588 
	C27.904881,99.115211 27.539080,99.126236 27.190193,99.167725 
	C25.898361,99.800926 24.955414,100.392639 24.015739,101.376404 
	C24.054569,102.291000 24.090120,102.813553 24.099382,103.603477 
	C23.738167,104.259171 23.403244,104.647476 22.804327,104.821289 
	C22.764235,99.846970 19.151323,97.484947 16.326267,94.615601 
	C14.782590,93.047714 13.495516,91.171478 11.776687,89.843285 
	C8.130626,87.025856 8.323203,82.630730 6.854136,78.922516 
z"/>
<path fill="#9569FE" opacity="1.000000" stroke="none" 
	d="
M31.259514,36.857124 
	C36.183659,37.396011 39.997169,38.981583 43.413544,42.672443 
	C51.873337,51.811928 60.890743,60.437683 69.747818,69.205490 
	C72.314484,71.746292 75.096794,74.069252 77.905457,77.173065 
	C76.352936,78.815430 74.675217,79.776802 72.950470,80.414131 
	C72.566353,79.529625 72.326233,78.872543 71.878036,78.422829 
	C60.053799,66.558495 48.239033,54.684189 36.312115,42.923676 
	C35.263077,41.889275 33.455818,41.623825 32.000732,41.001221 
	C32.000732,41.001221 32.000000,41.000000 31.946598,40.657028 
	C31.175730,39.844681 30.458267,39.375305 29.740805,38.905930 
	C30.146467,38.244465 30.552128,37.583004 31.259514,36.857124 
z"/>
<path fill="#FAF2FA" opacity="1.000000" stroke="none" 
	d="
M12.958372,67.875221 
	C12.068898,68.790245 11.179425,69.705269 9.987426,70.737228 
	C8.664536,67.346138 7.647283,63.839424 13.354161,62.989155 
	C13.779050,63.426697 13.833319,63.876743 13.817940,64.939781 
	C13.484984,66.326920 13.221679,67.101074 12.958372,67.875221 
z"/>
<path fill="#9177F8" opacity="1.000000" stroke="none" 
	d="
M45.998169,31.000610 
	C44.091476,30.532417 41.391533,32.637615 40.103378,29.082747 
	C40.906601,27.902470 41.985489,26.907961 43.453941,25.885626 
	C43.843506,25.857800 44.022057,26.019436 44.068153,26.363125 
	C44.742222,28.138081 45.370193,29.569345 45.998169,31.000610 
z"/>
<path fill="#9867FF" opacity="1.000000" stroke="none" 
	d="
M29.545065,39.003544 
	C30.458267,39.375305 31.175730,39.844681 31.945950,40.656647 
	C31.108814,40.808052 30.218925,40.616867 29.128099,40.140663 
	C28.986738,39.558735 29.127459,39.307240 29.545065,39.003544 
z"/>
<path fill="#9177F8" opacity="1.000000" stroke="none" 
	d="
M48.560097,21.768135 
	C48.910667,22.204920 48.947765,22.718590 48.619492,23.615751 
	C47.511288,24.008553 46.768456,24.017860 45.971420,23.969795 
	C45.917217,23.912422 45.809597,23.796942 45.809597,23.796942 
	C46.621941,23.146301 47.434284,22.495659 48.560097,21.768135 
z"/>
<path fill="#9177F8" opacity="1.000000" stroke="none" 
	d="
M43.753159,25.778187 
	C44.190319,25.127975 44.717834,24.557379 45.527473,23.891861 
	C45.809597,23.796942 45.917217,23.912422 45.917389,24.284058 
	C45.285721,25.110275 44.653889,25.564856 44.022057,26.019436 
	C44.022057,26.019436 43.843506,25.857800 43.753159,25.778187 
z"/>
<path fill="#857AFE" opacity="1.000000" stroke="none" 
	d="
M61.661674,13.890692 
	C61.492882,14.206836 61.025078,14.569590 60.239571,14.939947 
	C60.402134,14.610801 60.882397,14.274052 61.661674,13.890692 
z"/>
<path fill="#CD2EFE" opacity="1.000000" stroke="none" 
	d="
M58.610302,178.821808 
	C59.630257,179.338699 60.650211,179.855606 61.533428,180.833206 
	C59.916008,182.447922 58.435326,183.601944 56.954941,184.755737 
	C65.297806,192.838455 73.312538,200.356079 80.999847,208.194794 
	C83.447533,210.690674 85.024963,214.039978 86.634712,216.999023 
	C82.183876,218.450043 81.212708,214.624924 79.270958,212.701279 
	C65.292625,198.853348 51.326229,184.991302 37.523556,170.968826 
	C27.369963,160.653564 17.495859,150.063446 7.396627,139.693771 
	C6.750690,139.030533 5.236640,139.212753 4.126433,139.001663 
	C4.048334,138.249741 3.970234,137.497803 4.288600,136.414490 
	C5.323498,136.454590 5.961929,136.826080 6.831055,137.331787 
	C6.896047,136.469955 6.951427,135.735596 7.250758,134.832764 
	C7.665080,134.109634 7.835451,133.554977 8.367317,133.042908 
	C9.699218,134.500702 10.679333,135.909363 11.637335,137.332916 
	C12.623106,138.797745 13.439366,140.407486 14.595620,141.719543 
	C16.332150,143.690094 18.292522,145.464493 20.173399,147.306274 
	C21.109436,148.222855 22.051907,149.136551 23.040510,149.995071 
	C26.962395,153.400894 32.419331,156.053253 34.489311,160.344269 
	C37.751656,167.107025 43.527794,167.281097 49.088062,169.360962 
	C50.001415,175.151047 53.769539,177.542969 58.610302,178.821808 
z"/>
<path fill="#D627FD" opacity="1.000000" stroke="none" 
	d="
M74.054398,218.722076 
	C73.249123,218.486633 72.443848,218.251190 71.321655,217.995270 
	C70.246742,217.602264 69.488754,217.229767 68.224487,216.583511 
	C67.170334,216.142853 66.622475,215.975922 66.074615,215.809006 
	C55.837143,208.680283 45.562843,201.603333 35.398235,194.372192 
	C33.692379,193.158646 32.461418,191.277573 31.255953,189.367828 
	C34.931622,188.394775 34.765888,186.302979 32.720425,184.622879 
	C29.184763,181.718765 25.037315,179.589691 24.466856,174.224854 
	C24.311941,172.767960 22.635527,170.237000 21.792810,170.291519 
	C16.679722,170.622345 17.294447,166.329742 16.069687,163.421921 
	C15.189750,164.082520 14.550214,164.562637 13.910675,165.042755 
	C13.588352,164.619141 13.266032,164.195557 13.041214,163.207672 
	C13.755693,162.105026 14.372672,161.566681 15.049912,161.160675 
	C15.197142,161.338654 15.284109,161.384308 15.371078,161.429962 
	C15.256627,161.283218 15.142174,161.136459 15.045345,160.671692 
	C15.375095,159.569244 15.687219,158.784805 15.999672,158.000183 
	C16.000000,158.000000 16.000685,157.999832 16.269691,158.226074 
	C17.286739,160.060715 17.712631,161.954605 18.840057,163.226791 
	C23.116451,168.052246 27.499619,172.797012 32.062992,177.351364 
	C42.261169,187.529373 52.618320,197.547974 62.843678,207.699020 
	C64.715424,209.557159 66.537270,210.497330 69.323135,209.140320 
	C74.747147,210.732651 72.094200,215.804489 74.054398,218.722076 
z"/>
<path fill="#D02BFE" opacity="1.000000" stroke="none" 
	d="
M74.391174,218.878479 
	C72.094200,215.804489 74.747147,210.732651 69.318718,208.772003 
	C68.426071,207.109833 68.119957,205.691238 67.253754,204.847885 
	C61.012184,198.770981 54.511501,192.955399 48.372089,186.779526 
	C39.094982,177.447357 30.058102,167.876678 20.883879,158.441650 
	C19.459179,156.976440 17.951237,154.503525 16.000685,157.999832 
	C16.000685,157.999832 16.000000,158.000000 15.760169,157.815491 
	C15.849797,156.328598 16.179258,155.026184 16.252926,154.734970 
	C15.211596,153.644043 14.329719,153.074142 13.959045,152.268921 
	C12.553864,149.216461 10.655652,147.450974 7.108604,148.998642 
	C6.084287,145.905029 5.059969,142.811432 4.081042,139.359741 
	C5.236640,139.212753 6.750690,139.030533 7.396627,139.693771 
	C17.495859,150.063446 27.369963,160.653564 37.523556,170.968826 
	C51.326229,184.991302 65.292625,198.853348 79.270958,212.701279 
	C81.212708,214.624924 82.183876,218.450043 87.084656,216.999786 
	C90.600929,216.999390 93.301376,216.998474 96.001816,216.997559 
	C95.668373,218.123337 95.334930,219.249100 94.661903,220.686554 
	C93.545006,221.102066 92.767685,221.205902 91.990364,221.309738 
	C92.082748,221.582199 92.175125,221.854675 92.267502,222.127136 
	C93.179016,221.752502 94.090538,221.377869 95.002060,221.003235 
	C95.653137,221.501312 96.304214,221.999390 97.005569,222.833694 
	C94.358345,223.182983 91.650284,223.347443 88.966774,223.160141 
	C86.902466,223.016037 84.869049,222.429321 82.409271,222.027267 
	C79.573753,221.021698 77.150848,220.028275 74.391174,218.878479 
z"/>
<path fill="#DB27FA" opacity="1.000000" stroke="none" 
	d="
M13.963602,165.397156 
	C14.550214,164.562637 15.189750,164.082520 16.069687,163.421921 
	C17.294447,166.329742 16.679722,170.622345 21.792810,170.291519 
	C22.635527,170.237000 24.311941,172.767960 24.466856,174.224854 
	C25.037315,179.589691 29.184763,181.718765 32.720425,184.622879 
	C34.765888,186.302979 34.931622,188.394775 31.094547,189.064865 
	C25.130989,181.316513 19.573757,173.534042 13.963602,165.397156 
z"/>
<path fill="#D32BFE" opacity="1.000000" stroke="none" 
	d="
M7.096306,149.371155 
	C10.655652,147.450974 12.553864,149.216461 13.959045,152.268921 
	C14.329719,153.074142 15.211596,153.644043 16.252926,154.734970 
	C16.179258,155.026184 15.849797,156.328598 15.759840,157.815689 
	C15.687219,158.784805 15.375095,159.569244 15.032383,160.677917 
	C15.001795,161.002182 14.989653,161.028336 14.989652,161.028336 
	C14.372672,161.566681 13.755693,162.105026 13.012486,162.932388 
	C10.952174,158.728836 9.018090,154.236252 7.096306,149.371155 
z"/>
<path fill="#CB37FC" opacity="1.000000" stroke="none" 
	d="
M8.005822,133.000305 
	C7.835451,133.554977 7.665080,134.109634 7.237715,134.445251 
	C5.622766,133.500870 4.264811,132.775543 2.906856,132.050201 
	C2.634845,131.233566 2.362834,130.416931 2.378640,129.007706 
	C2.781298,126.942902 2.896140,125.470688 3.010981,123.998474 
	C3.896399,123.413155 4.781820,122.827843 6.364521,121.781586 
	C6.895172,123.545128 7.447553,125.380898 8.000186,128.024429 
	C8.002233,130.221573 8.004027,131.610931 8.005822,133.000305 
z"/>
<path fill="#C637FE" opacity="1.000000" stroke="none" 
	d="
M2.877474,132.407211 
	C4.264811,132.775543 5.622766,133.500870 6.993764,134.613708 
	C6.951427,135.735596 6.896047,136.469955 6.831055,137.331787 
	C5.961929,136.826080 5.323498,136.454590 4.394036,136.048523 
	C3.684702,134.930710 3.266398,133.847458 2.877474,132.407211 
z"/>
<path fill="#F9F6F9" opacity="1.000000" stroke="none" 
	d="
M66.019592,216.194244 
	C66.622475,215.975922 67.170334,216.142853 67.906738,216.526993 
	C67.487701,218.345963 66.880135,219.947693 66.272568,221.549438 
	C65.887451,221.465027 65.502335,221.380615 65.117218,221.296204 
	C65.399673,219.723969 65.682121,218.151733 66.019592,216.194244 
z"/>
<path fill="#C81FF6" opacity="1.000000" stroke="none" 
	d="
M3.004095,123.655312 
	C2.896140,125.470688 2.781298,126.942902 2.412600,128.675781 
	C2.083284,128.517319 2.007825,128.098175 1.881849,127.362198 
	C1.868196,126.295311 1.905060,125.545265 1.890279,124.421051 
	C1.883693,123.287155 1.928752,122.527435 1.942133,121.387062 
	C2.272706,121.774994 2.634957,122.543571 3.004095,123.655312 
z"/>
<path fill="#57ABFD" opacity="1.000000" stroke="none" 
	d="
M141.038177,5.274282 
	C145.101639,6.464949 149.148392,8.080420 153.577667,10.115242 
	C154.922989,12.492257 155.571259,14.713219 156.931473,16.338255 
	C158.490158,18.200407 160.828476,19.385042 162.573517,21.120045 
	C177.868744,36.327301 193.107086,51.591766 210.117905,68.594009 
	C210.204910,67.020622 210.286102,65.552429 210.367294,64.084229 
	C210.845520,64.394737 211.323730,64.705246 211.801956,65.015755 
	C211.624664,66.214241 211.178665,67.450844 211.341766,68.601059 
	C211.523743,69.884315 212.017212,71.277512 212.804581,72.288307 
	C214.381638,74.312859 216.251190,76.109550 218.004517,78.364410 
	C218.405807,80.197495 218.802582,81.666473 219.306641,83.532692 
	C219.926819,82.055817 220.342453,81.066032 220.758087,80.076248 
	C221.585342,83.331108 222.412598,86.585953 223.220200,90.221840 
	C223.025162,92.515701 222.849792,94.428520 222.674408,96.341347 
	C222.388290,96.383537 222.102158,96.425735 221.816040,96.467926 
	C220.516754,93.329170 219.217453,90.190407 217.844315,86.873215 
	C212.356659,81.607971 206.654022,75.870651 200.655884,70.460991 
	C195.343124,65.669464 191.337097,59.680786 184.488068,56.188377 
	C180.167450,53.985229 177.664352,48.386505 174.053894,44.588581 
	C165.058670,35.126293 155.918854,25.800854 146.788452,16.468044 
	C143.802521,13.415917 140.046982,10.843405 141.038177,5.274282 
z"/>
<path fill="#52B1FB" opacity="1.000000" stroke="none" 
	d="
M218.000000,78.000305 
	C216.251190,76.109550 214.381638,74.312859 212.804581,72.288307 
	C212.017212,71.277512 211.523743,69.884315 211.341766,68.601059 
	C211.178665,67.450844 211.624664,66.214241 211.801956,65.015755 
	C211.323730,64.705246 210.845520,64.394737 210.367294,64.084229 
	C210.286102,65.552429 210.204910,67.020622 210.117905,68.594009 
	C193.107086,51.591766 177.868744,36.327301 162.573517,21.120045 
	C160.828476,19.385042 158.490158,18.200407 156.931473,16.338255 
	C155.571259,14.713219 154.922989,12.492257 153.929672,10.117700 
	C154.117188,9.460532 154.335175,9.220258 154.783356,8.879467 
	C156.036896,9.204304 157.060226,9.629656 158.659149,10.354193 
	C162.163162,12.052999 165.091568,13.452620 168.019974,14.852240 
	C173.926834,18.711731 179.987473,22.360647 185.678085,26.516268 
	C188.690613,28.716215 191.059708,31.797268 194.146484,34.967701 
	C196.705795,37.682629 198.837906,39.910393 200.970016,42.138161 
	C201.052994,42.387764 201.189636,42.603359 201.604156,43.191868 
	C202.220184,44.063072 202.612000,44.527359 203.003799,44.991650 
	C208.293533,54.762001 213.583267,64.532349 218.631165,74.887970 
	C218.259537,76.315399 218.129776,77.157547 218.000000,77.999847 
	C218.000000,78.000000 218.000000,78.000305 218.000000,78.000305 
z"/>
<path fill="#EEF8F6" opacity="1.000000" stroke="none" 
	d="
M200.982269,41.684353 
	C198.837906,39.910393 196.705795,37.682629 194.388336,35.169342 
	C195.941010,34.371376 197.738037,33.374969 199.388962,33.576374 
	C200.083145,33.661068 200.613052,36.245617 200.946167,37.753704 
	C201.190994,38.862129 200.994385,40.068066 200.982269,41.684353 
z"/>
<path fill="#F1F8FA" opacity="1.000000" stroke="none" 
	d="
M168.014160,14.481806 
	C165.091568,13.452620 162.163162,12.052999 158.988190,10.403731 
	C164.933914,9.390790 167.207413,10.361669 168.014160,14.481806 
z"/>
<path fill="#52B1FB" opacity="1.000000" stroke="none" 
	d="
M220.746613,79.790482 
	C220.342453,81.066032 219.926819,82.055817 219.306641,83.532692 
	C218.802582,81.666473 218.405807,80.197495 218.004517,78.364410 
	C218.000000,78.000305 218.000000,78.000000 218.320862,78.000046 
	C219.069366,77.998596 219.496979,77.997101 219.924591,77.995613 
	C220.194778,78.498650 220.464951,79.001686 220.746613,79.790482 
z"/>
<path fill="#57ABFD" opacity="1.000000" stroke="none" 
	d="
M219.938660,77.673798 
	C219.496979,77.997101 219.069366,77.998596 218.320862,77.999893 
	C218.129776,77.157547 218.259537,76.315399 218.625854,75.255798 
	C219.225845,75.809563 219.589279,76.580772 219.938660,77.673798 
z"/>
<path fill="#F1F8FA" opacity="1.000000" stroke="none" 
	d="
M158.389328,7.464114 
	C157.941528,7.348480 157.667053,7.066412 157.413742,6.766457 
	C157.407272,6.758798 157.633499,6.554641 157.751205,6.442125 
	C158.022614,6.726534 158.294006,7.010940 158.389328,7.464114 
z"/>
<path fill="#EEF8F6" opacity="1.000000" stroke="none" 
	d="
M202.977600,44.667900 
	C202.612000,44.527359 202.220184,44.063072 201.770920,43.289124 
	C202.126114,43.434361 202.538773,43.889256 202.977600,44.667900 
z"/>
<path fill="#FCFBFD" opacity="1.000000" stroke="none" 
	d="
M72.997498,80.738182 
	C74.675217,79.776802 76.352936,78.815430 78.047150,77.504601 
	C79.259407,74.318512 80.455162,71.481880 81.945541,68.050629 
	C82.630684,66.940575 83.021202,66.425125 83.671265,65.760971 
	C84.566612,64.717049 85.202415,63.821838 85.892502,62.619038 
	C86.020271,61.901852 86.093765,61.492256 86.167259,61.082664 
	C86.495338,61.019585 86.823425,60.956505 87.750633,61.006454 
	C89.943466,60.844353 91.808479,61.002007 93.076385,60.207165 
	C96.037643,58.350769 98.769981,56.106407 101.465233,53.863220 
	C102.213585,53.240391 102.507477,52.071522 103.009865,51.153168 
	C104.770386,50.759583 106.530907,50.365997 108.952858,50.030918 
	C109.763847,50.155270 109.954857,50.185448 110.051033,50.297230 
	C110.142784,50.403866 110.207947,50.703232 110.161659,50.734280 
	C108.394188,51.919792 106.612495,53.084126 104.669792,54.358105 
	C110.359863,56.811329 113.597839,53.083271 117.053993,49.962337 
	C117.213890,49.911942 117.373795,49.861542 117.768456,49.720131 
	C118.176300,49.686668 118.349396,49.744225 119.023193,49.890991 
	C119.679604,50.044357 119.835304,50.108505 120.170822,50.451599 
	C122.495743,51.554375 123.950745,55.295273 126.998581,52.303291 
	C127.783394,52.519241 128.568207,52.735188 129.861725,53.289650 
	C139.327087,58.589672 145.046310,66.052536 148.219727,75.776466 
	C148.870972,77.771980 151.077698,80.099388 153.034698,80.669250 
	C158.547089,82.274437 164.302750,83.044159 169.962524,84.143219 
	C171.047836,84.498756 172.133148,84.854279 173.566650,85.267181 
	C178.474243,87.295738 183.033646,89.266922 187.961624,91.790665 
	C188.947922,92.536705 189.565659,92.730194 190.183380,92.923691 
	C190.710861,93.111816 191.238327,93.299957 191.667297,93.884018 
	C190.974655,95.026581 190.380524,95.773209 189.998611,96.253136 
	C192.693558,97.185905 195.264816,98.075859 197.836060,98.965820 
	C197.836060,98.965820 198.065125,99.347351 198.152740,99.855270 
	C198.578690,100.551895 198.917038,100.740593 199.255386,100.929291 
	C199.255386,100.929291 199.660324,100.885895 199.910736,101.168121 
	C200.300827,101.680725 200.495087,101.847504 200.743958,101.950699 
	C202.374969,105.076752 204.005981,108.202812 205.777924,111.664383 
	C205.574295,114.300461 205.229736,116.601028 204.657623,119.521423 
	C204.253845,120.751038 204.077621,121.360825 203.901398,121.970612 
	C203.901398,121.970612 203.981781,121.983620 203.705872,122.117012 
	C203.236893,122.809174 203.043808,123.367943 202.850723,123.926720 
	C202.850723,123.926720 202.925430,123.975952 202.673203,124.015671 
	C202.259460,124.356468 202.097946,124.657555 201.936432,124.958633 
	C201.936432,124.958633 201.950180,124.972549 201.937866,124.958389 
	C199.086121,127.453209 196.246674,129.962189 193.205688,132.746033 
	C190.186768,134.522568 187.369385,136.024231 184.273407,137.712433 
	C179.502014,139.535614 175.009171,141.172287 170.244843,142.933258 
	C165.549393,143.935181 161.125458,144.812790 155.979401,145.832657 
	C148.270767,145.562744 148.150528,151.127548 146.834229,155.651215 
	C143.681198,159.908890 140.528168,164.166550 137.234985,168.721542 
	C136.055069,169.769287 135.015289,170.519714 133.788986,171.537323 
	C129.885406,173.360962 126.168343,174.917404 122.187500,176.721039 
	C118.567848,177.248169 115.211990,177.528076 111.429138,177.933289 
	C107.256630,177.029816 103.511108,176.001038 99.376251,174.988586 
	C98.373215,174.618317 97.759506,174.231705 96.660309,173.580048 
	C95.442848,172.895065 94.710869,172.475113 93.978889,172.055161 
	C93.978889,172.055161 93.990410,171.996201 93.814133,171.758118 
	C93.120193,171.250778 92.602531,170.981506 92.084869,170.712219 
	C88.464409,166.337585 84.843956,161.962967 80.967285,156.939880 
	C79.940247,154.100708 79.248322,151.878113 78.379616,149.726898 
	C77.156128,146.697174 75.157715,145.229248 71.854858,146.926819 
	C67.149048,145.594955 62.443230,144.263092 57.104488,142.696960 
	C48.676861,139.257065 40.882164,136.051453 33.087471,132.845825 
	C29.880203,129.582275 25.979685,126.736130 23.684177,122.923615 
	C21.834946,119.852287 21.925327,115.613136 21.360668,111.200424 
	C22.066893,108.684418 22.567606,106.860107 23.068321,105.035789 
	C23.403244,104.647476 23.738167,104.259171 24.325462,103.452080 
	C24.728657,102.709785 24.879480,102.386276 25.269939,101.928078 
	C25.952885,101.472229 26.396194,101.151054 26.891792,100.891129 
	C26.944082,100.952370 27.059963,101.064209 27.154163,101.274384 
	C27.439091,101.740829 27.687174,101.915817 28.049553,102.147522 
	C28.194113,102.333824 28.281733,102.382141 28.369352,102.430458 
	C28.249506,102.284416 28.129658,102.138374 28.007633,101.743103 
	C28.005457,101.493866 27.997957,100.995422 27.932079,100.810379 
	C27.747648,100.382607 27.571280,100.193916 27.374702,99.823219 
	C27.412313,99.587173 27.539080,99.126236 27.539080,99.126236 
	C27.539080,99.126236 27.904881,99.115211 28.272045,99.085953 
	C28.639212,99.056694 29.010647,99.054344 29.104515,99.212326 
	C29.464657,99.247375 29.730930,99.124451 30.002056,98.725647 
	C30.023222,98.082237 30.039532,97.714706 30.156780,97.067749 
	C30.268845,96.590569 30.279976,96.392815 30.291107,96.195061 
	C30.291107,96.195061 30.213280,96.281807 30.549122,96.276474 
	C31.254358,96.179550 31.623753,96.087959 32.349586,96.036285 
	C36.696312,97.070763 38.741722,95.590393 38.975380,91.457962 
	C39.400810,91.060677 39.708046,90.975616 40.332672,90.994965 
	C41.071369,90.682487 41.526321,90.387123 42.143364,90.000870 
	C42.305462,89.909981 42.676838,89.894920 42.937744,89.863968 
	C43.456837,89.612274 43.715023,89.391525 44.210701,89.066559 
	C44.619446,88.938499 44.790695,88.914650 45.154175,89.163689 
	C46.884254,88.577187 48.422112,87.717796 49.959969,86.858406 
	C52.059685,85.906029 54.159401,84.953651 56.625427,83.961342 
	C59.739941,83.302887 62.488152,82.684380 66.013260,82.035851 
	C68.859276,81.583290 70.928391,81.160736 72.997498,80.738182 
M73.136902,97.281906 
	C71.738266,97.771027 70.339630,98.260147 68.352081,98.876717 
	C67.414032,99.165909 66.475975,99.455101 65.022087,99.176086 
	C63.616707,99.755600 62.211323,100.335114 60.197704,100.948563 
	C59.798077,101.016121 59.398453,101.083679 58.254436,101.310532 
	C55.809010,101.963837 53.363583,102.617149 50.473560,103.306633 
	C50.156818,103.404778 49.963211,103.615936 49.951946,103.906006 
	C49.951946,103.906006 49.906284,103.854645 49.184830,103.912125 
	C46.697723,105.208206 44.025524,106.243271 41.759003,107.850441 
	C35.523312,112.272118 35.752674,114.823204 42.027275,119.078056 
	C51.417187,125.445427 62.078613,128.023239 73.698578,130.196228 
	C75.139046,130.431900 76.579514,130.667572 78.811501,131.080292 
	C80.159523,131.073532 81.507545,131.066772 83.230743,131.654617 
	C84.142395,131.738235 85.054047,131.821838 86.638817,132.128342 
	C87.761948,132.432068 88.885078,132.735809 90.624908,133.146561 
	C91.041733,133.163773 91.458557,133.180984 91.937103,134.008545 
	C92.292999,135.930130 92.924324,137.846634 92.959801,139.774109 
	C93.180084,151.742172 98.545479,158.335648 111.136230,161.643158 
	C112.608994,161.468796 114.081764,161.294434 116.004890,161.376968 
	C116.338127,161.305130 116.671364,161.233292 117.790428,161.177765 
	C121.284851,159.169647 124.779274,157.161545 128.819244,154.789764 
	C129.583221,153.542328 130.347198,152.294876 131.603165,150.623505 
	C131.820023,149.801468 132.036880,148.979431 132.236588,148.120422 
	C132.236588,148.120422 132.196106,148.115784 132.777435,147.627777 
	C133.067993,144.706848 133.971512,141.692307 133.542084,138.881363 
	C131.764450,127.244942 123.064095,120.878151 109.187065,121.044342 
	C102.513145,118.307617 95.839233,115.570892 88.997246,112.176262 
	C86.173805,107.923767 82.877838,103.900284 80.671883,99.348534 
	C78.804970,95.496330 76.948647,95.249611 73.136902,97.281906 
M149.311966,96.019028 
	C148.875061,96.013237 148.438156,96.007446 147.375656,95.840660 
	C146.946732,95.824409 146.517807,95.808159 145.508377,95.385155 
	C143.552338,95.169830 141.484375,95.287064 139.662247,94.673843 
	C135.068268,93.127792 133.970871,89.464241 133.786667,84.919899 
	C133.249207,71.660736 120.842407,62.300327 108.239838,65.967690 
	C103.239563,67.219650 99.160461,69.697464 96.245003,74.995827 
	C88.909897,86.744255 95.453339,102.251450 108.966469,105.071709 
	C115.920464,106.523041 122.892937,107.885849 130.289200,109.790802 
	C137.818985,114.187012 143.502747,120.182182 147.048752,128.269424 
	C147.582855,129.487579 150.001053,130.747726 151.365646,130.572296 
	C155.609924,130.026657 159.766647,128.799850 164.691559,127.728271 
	C168.862885,126.181084 173.034210,124.633896 177.753036,123.050781 
	C178.212830,122.781731 178.672623,122.512672 179.827469,122.098900 
	C181.970062,120.847649 184.305099,119.835854 186.217758,118.298546 
	C191.201645,114.292725 191.608276,111.921043 186.134354,108.859116 
	C178.866852,104.793922 170.756485,102.235603 162.311844,98.710281 
	C158.189240,97.873825 154.066635,97.037376 149.311966,96.019028 
M185.903671,94.269470 
	C185.958405,94.767891 186.013138,95.266319 186.067856,95.764740 
	C186.514359,95.649963 186.960861,95.535187 187.407364,95.420410 
	C187.105301,94.994904 186.803223,94.569389 185.903671,94.269470 
M32.177776,102.031311 
	C32.272861,102.436668 32.367947,102.842018 32.463036,103.247375 
	C32.583717,103.158653 32.816391,103.054459 32.806629,102.983757 
	C32.749775,102.572235 32.635994,102.168564 32.177776,102.031311 
z"/>
<path fill="#F6F9FA" opacity="1.000000" stroke="none" 
	d="
M165.829956,50.292156 
	C169.794739,48.699947 173.184311,49.166393 175.765762,52.379250 
	C178.210037,55.421349 178.015076,58.711311 176.003387,62.295883 
	C170.475800,65.995796 166.721466,65.999260 164.075302,62.601631 
	C160.733704,58.311062 161.201340,54.667057 165.829956,50.292156 
z"/>
<path fill="#F4F8F8" opacity="1.000000" stroke="none" 
	d="
M197.803955,98.643112 
	C195.264816,98.075859 192.693558,97.185905 189.998611,96.253136 
	C190.380524,95.773209 190.974655,95.026581 191.842316,94.108841 
	C194.001160,95.398621 195.886490,96.859512 197.803955,98.643112 
z"/>
<path fill="#F4F8F8" opacity="1.000000" stroke="none" 
	d="
M189.990723,92.676132 
	C189.565659,92.730194 188.947922,92.536705 188.200958,92.030785 
	C188.647156,91.955086 189.222610,92.191826 189.990723,92.676132 
z"/>
<path fill="#F4F8F8" opacity="1.000000" stroke="none" 
	d="
M199.065735,100.728317 
	C198.917038,100.740593 198.578690,100.551895 198.145813,100.077682 
	C198.326202,100.037224 198.601135,100.282280 199.065735,100.728317 
z"/>
<path fill="#F4F8F8" opacity="1.000000" stroke="none" 
	d="
M200.701904,101.748604 
	C200.495087,101.847504 200.300827,101.680725 200.086884,101.270294 
	C200.318680,101.114388 200.534424,101.266479 200.701904,101.748604 
z"/>
<path fill="#CB31FF" opacity="1.000000" stroke="none" 
	d="
M95.966980,216.653259 
	C93.301376,216.998474 90.600929,216.999390 87.450546,216.999542 
	C85.024963,214.039978 83.447533,210.690674 80.999847,208.194794 
	C73.312538,200.356079 65.297806,192.838455 56.954941,184.755737 
	C58.435326,183.601944 59.916008,182.447922 61.698494,181.146912 
	C72.082359,191.248734 82.179817,201.482513 92.228333,211.764114 
	C93.588753,213.156097 94.703583,214.788086 95.966980,216.653259 
z"/>
<path fill="#F9F1F9" opacity="1.000000" stroke="none" 
	d="
M58.686203,178.469574 
	C53.769539,177.542969 50.001415,175.151047 49.236309,169.083466 
	C49.596119,167.455627 49.883312,166.462616 50.470695,165.238312 
	C53.580036,161.116516 57.583065,162.025116 61.441498,162.352493 
	C61.441498,162.352493 61.410686,162.476639 61.400368,162.542267 
	C62.610661,165.146805 63.831272,167.685684 65.110153,170.613068 
	C64.513031,172.118332 63.857655,173.235077 63.162182,174.677032 
	C61.668758,176.040604 60.215431,177.078964 58.686203,178.469574 
z"/>
<path fill="#CA32FF" opacity="1.000000" stroke="none" 
	d="
M50.170509,165.469589 
	C49.883312,166.462616 49.596119,167.455627 49.160679,168.726151 
	C43.527794,167.281097 37.751656,167.107025 34.489311,160.344269 
	C32.419331,156.053253 26.962395,153.400894 23.040510,149.995071 
	C22.051907,149.136551 21.109436,148.222855 20.173399,147.306274 
	C18.292522,145.464493 16.332150,143.690094 14.595620,141.719543 
	C13.439366,140.407486 12.623106,138.797745 11.637335,137.332916 
	C10.679333,135.909363 9.699218,134.500702 8.367317,133.042908 
	C8.004027,131.610931 8.002233,130.221573 8.000238,128.415344 
	C10.144235,128.976578 12.761664,129.466629 14.355611,131.012207 
	C24.491562,140.840485 34.369595,150.934204 44.424534,160.847229 
	C45.763359,162.167160 47.622128,162.959732 49.648312,164.369232 
	C50.094517,164.984497 50.132515,165.227051 50.170509,165.469589 
z"/>
<path fill="#C03CFD" opacity="1.000000" stroke="none" 
	d="
M50.470695,165.238312 
	C50.132515,165.227051 50.094517,164.984497 50.011459,164.376526 
	C50.354591,162.453003 50.742783,160.894897 51.130974,159.336792 
	C51.828274,158.943100 52.525574,158.549408 53.222874,158.155716 
	C45.505886,151.001999 37.788898,143.848282 30.036795,136.347595 
	C30.939573,135.112106 31.877466,134.223587 32.951416,133.090454 
	C40.882164,136.051453 48.676861,139.257065 56.737701,142.701462 
	C57.376362,143.457077 57.748871,143.973938 58.474331,144.980499 
	C55.294853,144.292664 52.552364,143.699356 49.809872,143.106049 
	C49.496124,143.457214 49.182377,143.808395 48.868629,144.159561 
	C51.134022,146.716507 53.374409,149.296188 55.671986,151.823883 
	C57.878506,154.251373 60.229004,156.555359 62.308079,159.084732 
	C62.694920,159.555359 62.095131,160.836975 61.696091,162.048401 
	C57.583065,162.025116 53.580036,161.116516 50.470695,165.238312 
z"/>
<path fill="#BF3BFB" opacity="1.000000" stroke="none" 
	d="
M8.450481,120.531708 
	C8.417856,120.476761 8.483106,120.586655 8.450481,120.531708 
z"/>
<path fill="#BA44FC" opacity="1.000000" stroke="none" 
	d="
M22.804325,104.821289 
	C22.567606,106.860107 22.066893,108.684418 21.341000,110.776459 
	C20.461784,110.168571 19.807749,109.292961 18.755409,107.884102 
	C18.262381,109.662682 17.902069,110.962494 17.032598,114.099091 
	C13.682431,109.180489 11.039696,105.300514 8.159023,101.071213 
	C7.467455,102.274918 6.873232,103.309181 5.393178,105.885277 
	C4.256170,102.396942 3.486183,100.034622 2.485507,97.394455 
	C3.619027,91.230682 4.983234,85.344757 6.600789,79.190674 
	C8.323203,82.630730 8.130626,87.025856 11.776687,89.843285 
	C13.495516,91.171478 14.782590,93.047714 16.326267,94.615601 
	C19.151323,97.484947 22.764235,99.846970 22.804325,104.821289 
M5.999680,97.244514 
	C5.840853,95.990356 5.682026,94.736206 5.523199,93.482048 
	C5.043404,93.559837 4.563609,93.637634 4.083814,93.715431 
	C4.453484,95.799858 4.823154,97.884285 5.192823,99.968719 
	C5.422141,99.941322 5.651459,99.913925 5.880776,99.886536 
	C5.920538,99.252960 5.960299,98.619392 5.999680,97.244514 
z"/>
<path fill="#B34BF7" opacity="1.000000" stroke="none" 
	d="
M72.151886,147.056000 
	C75.157715,145.229248 77.156128,146.697174 78.379616,149.726898 
	C79.248322,151.878113 79.940247,154.100708 80.763359,156.647095 
	C79.771118,156.581696 78.726593,156.160660 77.102165,155.505859 
	C76.685448,157.316574 76.286171,159.051529 75.886894,160.786484 
	C74.104790,157.076797 75.521301,151.383469 68.386040,151.012009 
	C68.680069,150.528290 68.974091,150.044571 69.268120,149.560852 
	C70.847839,149.295532 72.427559,149.030212 74.553421,148.673141 
	C73.654755,148.037766 73.051834,147.611481 72.151886,147.056000 
z"/>
<path fill="#B549FE" opacity="1.000000" stroke="none" 
	d="
M94.053146,172.410583 
	C94.710869,172.475113 95.442848,172.895065 96.369934,173.576111 
	C95.752495,173.480133 94.939949,173.123062 94.053146,172.410583 
z"/>
<path fill="#B549FE" opacity="1.000000" stroke="none" 
	d="
M92.186661,171.007538 
	C92.602531,170.981506 93.120193,171.250778 93.788139,171.773193 
	C93.388435,171.785172 92.838448,171.544006 92.186661,171.007538 
z"/>
<path fill="#946BF7" opacity="1.000000" stroke="none" 
	d="
M146.907822,156.026154 
	C148.150528,151.127548 148.270767,145.562744 155.631195,146.003113 
	C157.511353,146.839737 159.017624,147.648148 160.759811,148.728149 
	C152.401642,149.035751 151.589264,150.170853 152.997162,160.585999 
	C150.992172,159.464172 148.986801,157.932617 146.907822,156.026154 
z"/>
<path fill="#7E83FE" opacity="1.000000" stroke="none" 
	d="
M181.450562,140.532135 
	C181.417877,140.477173 181.483246,140.587097 181.450562,140.532135 
z"/>
<path fill="#AE4EFD" opacity="1.000000" stroke="none" 
	d="
M162.044907,211.394272 
	C162.286774,211.790695 162.285095,212.184952 162.254944,212.576996 
	C162.254089,212.587936 161.948486,212.575409 161.784973,212.573837 
	C161.789124,212.179825 161.793259,211.785797 162.044907,211.394272 
z"/>
<path fill="#768CFD" opacity="1.000000" stroke="none" 
	d="
M204.185913,121.789337 
	C204.077621,121.360825 204.253845,120.751038 204.654770,119.906921 
	C204.743118,120.317749 204.606781,120.962914 204.185913,121.789337 
z"/>
<path fill="#768CFD" opacity="1.000000" stroke="none" 
	d="
M203.132401,123.789810 
	C203.043808,123.367943 203.236893,122.809174 203.682373,122.083763 
	C203.761215,122.495712 203.587646,123.074310 203.132401,123.789810 
z"/>
<path fill="#768CFD" opacity="1.000000" stroke="none" 
	d="
M202.171936,124.855652 
	C202.097946,124.657555 202.259460,124.356468 202.670197,123.971031 
	C202.748764,124.175346 202.578094,124.464005 202.171936,124.855652 
z"/>
<path fill="#7592FB" opacity="1.000000" stroke="none" 
	d="
M169.818024,83.800499 
	C164.302750,83.044159 158.547089,82.274437 153.034698,80.669250 
	C151.077698,80.099388 148.870972,77.771980 148.219727,75.776466 
	C145.046310,66.052536 139.327087,58.589672 130.165649,53.362244 
	C130.754364,52.416355 131.547882,51.736385 132.669769,51.027905 
	C136.112503,53.825829 139.036987,56.909367 142.402893,59.395203 
	C144.973877,61.293968 145.483307,65.913841 150.040253,65.258141 
	C150.486450,65.193932 151.353729,65.882645 151.522919,66.389618 
	C154.514557,75.354515 161.778946,79.733986 169.818024,83.800499 
z"/>
<path fill="#F6F7F8" opacity="1.000000" stroke="none" 
	d="
M102.659210,51.156204 
	C102.507477,52.071522 102.213585,53.240391 101.465233,53.863220 
	C98.769981,56.106407 96.037643,58.350769 93.076385,60.207165 
	C91.808479,61.002007 89.943466,60.844353 87.997726,60.962128 
	C90.633080,58.382942 93.620461,55.961117 96.822128,53.277649 
	C98.793800,52.397083 100.551178,51.778164 102.659210,51.156204 
z"/>
<path fill="#F6F9F9" opacity="1.000000" stroke="none" 
	d="
M116.736717,49.746468 
	C113.597839,53.083271 110.359863,56.811329 104.669792,54.358105 
	C106.612495,53.084126 108.394188,51.919792 110.161659,50.734280 
	C110.207947,50.703232 110.142784,50.403866 110.051033,50.297230 
	C109.954857,50.185448 109.763847,50.155270 109.346153,50.059326 
	C109.078018,50.029232 109.269997,49.641663 109.392685,49.463432 
	C111.816734,49.366997 114.118088,49.448795 116.736717,49.746468 
z"/>
<path fill="#8B73FE" opacity="1.000000" stroke="none" 
	d="
M85.842201,60.927711 
	C86.093765,61.492256 86.020271,61.901852 85.618195,62.762283 
	C84.663651,64.111977 84.037682,65.010826 83.411713,65.909676 
	C83.021202,66.425125 82.630684,66.940575 82.040909,67.710983 
	C78.432442,65.239250 74.790016,62.754711 71.659035,59.739159 
	C63.248043,51.638252 55.025562,43.340008 46.831944,35.018005 
	C46.153736,34.329170 46.258953,32.868999 45.999168,31.383911 
	C45.370193,29.569345 44.742222,28.138081 44.068153,26.363125 
	C44.653889,25.564856 45.285721,25.110275 45.971592,24.341433 
	C46.768456,24.017860 47.511288,24.008553 48.625824,24.001343 
	C53.362064,28.865839 57.615250,33.834343 62.120693,38.562469 
	C67.196198,43.888824 72.436813,49.062984 77.730515,54.173985 
	C80.172966,56.532143 82.912376,58.582722 85.842201,60.927711 
z"/>
<path fill="#9867FF" opacity="1.000000" stroke="none" 
	d="
M72.950470,80.414131 
	C70.928391,81.160736 68.859276,81.583290 66.396210,81.974197 
	C63.126297,78.360123 60.442352,74.599808 57.327930,71.238319 
	C53.005665,66.573181 48.393772,62.173130 43.841904,57.725056 
	C40.566555,54.524395 37.413136,51.130352 33.777817,48.389618 
	C31.139769,46.400742 30.482821,44.545528 31.958218,41.375450 
	C33.455818,41.623825 35.263077,41.889275 36.312115,42.923676 
	C48.239033,54.684189 60.053799,66.558495 71.878036,78.422829 
	C72.326233,78.872543 72.566353,79.529625 72.950470,80.414131 
z"/>
<path fill="#F6F9F9" opacity="1.000000" stroke="none" 
	d="
M126.708282,52.114243 
	C123.950745,55.295273 122.495743,51.554375 120.505646,50.403152 
	C121.111374,50.067310 121.562096,50.058857 122.012817,50.050404 
	C123.481209,50.675331 124.949593,51.300262 126.708282,52.114243 
z"/>
<path fill="#768AFE" opacity="1.000000" stroke="none" 
	d="
M121.848366,49.799770 
	C121.562096,50.058857 121.111374,50.067310 120.325829,50.124210 
	C119.835304,50.108505 119.679604,50.044357 119.296082,49.871128 
	C119.940155,49.691082 120.812035,49.620110 121.848366,49.799770 
z"/>
<path fill="#AB54FE" opacity="1.000000" stroke="none" 
	d="
M40.048923,91.012085 
	C39.708046,90.975616 39.400810,91.060677 38.644547,91.568176 
	C36.105629,93.244843 34.049389,94.620613 31.993145,95.996376 
	C31.623753,96.087959 31.254358,96.179550 30.603718,96.296844 
	C31.031794,94.832993 31.741119,93.343437 32.444042,91.867325 
	C25.046818,90.345230 22.896976,82.748154 17.472317,78.925224 
	C14.012000,76.486641 12.163654,73.158569 12.970896,68.309921 
	C13.221679,67.101074 13.484984,66.326920 13.892371,65.271637 
	C15.457525,64.208099 16.878599,63.425690 18.299673,62.643280 
	C18.618120,62.186058 18.936569,61.728832 19.255016,61.271610 
	C25.032757,67.507042 30.726744,73.823250 36.626873,79.940636 
	C39.214828,82.623894 42.223320,84.901566 45.073349,87.733543 
	C45.105846,88.103691 45.118584,88.087265 44.804718,88.077538 
	C43.998272,88.390961 43.505699,88.714104 42.923515,89.249496 
	C42.833904,89.461746 42.676838,89.894920 42.676838,89.894920 
	C42.676838,89.894920 42.305462,89.909981 41.860889,89.999008 
	C40.960518,90.396057 40.504723,90.704071 40.048923,91.012085 
z"/>
<path fill="#FAF4F8" opacity="1.000000" stroke="none" 
	d="
M49.601559,86.891205 
	C48.422112,87.717796 46.884254,88.577187 45.195450,88.963287 
	C45.044498,88.489998 45.118584,88.087265 45.118584,88.087265 
	C45.118584,88.087265 45.105846,88.103691 45.120586,88.116562 
	C46.504601,87.727623 47.873875,87.325806 49.601559,86.891205 
z"/>
<path fill="#AB54FE" opacity="1.000000" stroke="none" 
	d="
M26.839504,100.829880 
	C26.396194,101.151054 25.952885,101.472229 25.156876,101.699333 
	C24.540272,101.398300 24.276367,101.191330 24.012463,100.984352 
	C24.955414,100.392639 25.898361,99.800926 27.190193,99.167725 
	C27.539080,99.126236 27.412313,99.587173 27.203850,99.985954 
	C26.995386,100.384735 26.839506,100.829887 26.839504,100.829880 
z"/>
<path fill="#FAF4F8" opacity="1.000000" stroke="none" 
	d="
M29.010647,99.054344 
	C29.010647,99.054344 28.639212,99.056694 28.454082,99.067337 
	C28.492390,98.699249 28.715826,98.320534 29.265987,97.671982 
	C29.592710,97.402145 30.055843,97.347183 30.055843,97.347183 
	C30.039532,97.714706 30.023222,98.082237 29.755119,98.732925 
	C29.503330,99.016083 29.010647,99.054344 29.010647,99.054344 
z"/>
<path fill="#BA44FC" opacity="1.000000" stroke="none" 
	d="
M24.015739,101.376404 
	C24.276367,101.191330 24.540272,101.398300 24.917240,101.834015 
	C24.879480,102.386276 24.728657,102.709785 24.351753,103.184700 
	C24.090120,102.813553 24.054569,102.291000 24.015739,101.376404 
z"/>
<path fill="#AB54FE" opacity="1.000000" stroke="none" 
	d="
M30.156780,97.067749 
	C30.055843,97.347183 29.592710,97.402145 29.368792,97.470497 
	C29.315928,97.151169 29.486984,96.763489 29.974573,96.285431 
	C30.279976,96.392815 30.268845,96.590569 30.156780,97.067749 
z"/>
<path fill="#D32BFE" opacity="1.000000" stroke="none" 
	d="
M16.269691,158.226074 
	C17.951237,154.503525 19.459179,156.976440 20.883879,158.441650 
	C30.058102,167.876678 39.094982,177.447357 48.372089,186.779526 
	C54.511501,192.955399 61.012184,198.770981 67.253754,204.847885 
	C68.119957,205.691238 68.426071,207.109833 68.995880,208.630463 
	C66.537270,210.497330 64.715424,209.557159 62.843678,207.699020 
	C52.618320,197.547974 42.261169,187.529373 32.062992,177.351364 
	C27.499619,172.797012 23.116451,168.052246 18.840057,163.226791 
	C17.712631,161.954605 17.286739,160.060715 16.269691,158.226074 
z"/>
<path fill="#DB27FA" opacity="1.000000" stroke="none" 
	d="
M15.014757,160.995941 
	C15.142174,161.136459 15.256627,161.283218 15.371078,161.429962 
	C15.284109,161.384308 15.197142,161.338654 15.049913,161.160675 
	C14.989653,161.028336 15.001795,161.002182 15.014757,160.995941 
z"/>
<path fill="#C734FE" opacity="1.000000" stroke="none" 
	d="
M95.001030,221.001617 
	C94.090538,221.377869 93.179016,221.752502 92.267502,222.127136 
	C92.175125,221.854675 92.082748,221.582199 91.990364,221.309738 
	C92.767685,221.205902 93.545006,221.102066 94.659332,220.997284 
	C94.996338,220.996338 95.000000,221.000000 95.001030,221.001617 
z"/>
<path fill="#8779FE" opacity="1.000000" stroke="none" 
	d="
M96.848892,74.527435 
	C99.160461,69.697464 103.239563,67.219650 108.609390,66.331398 
	C108.347557,68.122581 107.716171,69.550049 107.033333,71.093872 
	C108.215439,71.732483 109.407433,72.069260 110.165192,72.835480 
	C115.216759,77.943428 120.234207,83.088295 125.140388,88.335548 
	C127.687218,91.059425 129.790466,94.215805 132.452652,96.808670 
	C134.744644,99.040985 137.837479,100.464973 140.068405,102.743561 
	C148.147064,110.994858 156.011826,119.455589 163.957321,127.837280 
	C159.766647,128.799850 155.609924,130.026657 151.365646,130.572296 
	C150.001053,130.747726 147.582855,129.487579 147.048752,128.269424 
	C143.502747,120.182182 137.818985,114.187012 130.212524,109.205421 
	C129.617355,107.530502 129.099289,105.499023 128.580322,105.498779 
	C123.963646,105.496651 121.640808,102.114555 118.879272,99.369736 
	C113.483543,94.006699 107.967789,88.752609 102.802505,83.174858 
	C100.449318,80.633774 98.811295,77.430412 96.848892,74.527435 
z"/>
<path fill="#8181FD" opacity="1.000000" stroke="none" 
	d="
M164.324432,127.782776 
	C156.011826,119.455589 148.147064,110.994858 140.068405,102.743561 
	C137.837479,100.464973 134.744644,99.040985 132.452652,96.808670 
	C129.790466,94.215805 127.687218,91.059425 125.140388,88.335548 
	C120.234207,83.088295 115.216759,77.943428 110.165192,72.835480 
	C109.407433,72.069260 108.215439,71.732483 107.033333,71.093872 
	C107.716171,69.550049 108.347557,68.122581 108.980728,66.319336 
	C120.842407,62.300327 133.249207,71.660736 133.786667,84.919899 
	C133.970871,89.464241 135.068268,93.127792 139.662247,94.673843 
	C141.484375,95.287064 143.552338,95.169830 145.773666,95.971397 
	C146.776489,97.955345 147.248306,99.606544 148.297791,100.706657 
	C152.727448,105.349953 157.390839,109.769516 161.850388,114.385246 
	C166.132416,118.817245 169.670029,124.443039 177.205536,123.086708 
	C173.034210,124.633896 168.862885,126.181084 164.324432,127.782776 
z"/>
<path fill="#9C63FE" opacity="1.000000" stroke="none" 
	d="
M89.165314,112.834167 
	C95.839233,115.570892 102.513145,118.307617 109.648132,121.471939 
	C112.706017,123.316536 115.302834,124.733528 118.641037,126.555069 
	C120.493675,131.929657 125.676514,137.166016 130.347366,138.044296 
	C130.982941,141.506790 131.589523,144.811279 132.196106,148.115784 
	C132.196106,148.115784 132.236588,148.120422 131.924652,148.197769 
	C131.445526,149.199219 131.278351,150.123337 131.111176,151.047440 
	C130.347198,152.294876 129.583221,153.542328 128.250565,154.797791 
	C126.788101,154.203461 125.894325,153.601120 124.966209,152.654327 
	C123.813965,150.899277 122.816483,149.369522 121.558327,148.097641 
	C114.189606,140.648590 106.625153,133.388000 99.405975,125.798233 
	C95.629250,121.827652 92.422897,117.314552 89.010674,112.993530 
	C89.062401,112.940582 89.165314,112.834167 89.165314,112.834167 
z"/>
<path fill="#8F72FC" opacity="1.000000" stroke="none" 
	d="
M96.546944,74.761627 
	C98.811295,77.430412 100.449318,80.633774 102.802505,83.174858 
	C107.967789,88.752609 113.483543,94.006699 118.879272,99.369736 
	C121.640808,102.114555 123.963646,105.496651 128.580322,105.498779 
	C129.099289,105.499023 129.617355,107.530502 129.996445,108.954353 
	C122.892937,107.885849 115.920464,106.523041 108.966469,105.071709 
	C95.453339,102.251450 88.909897,86.744255 96.546944,74.761627 
z"/>
<path fill="#A55AFD" opacity="1.000000" stroke="none" 
	d="
M125.000549,152.998779 
	C125.894325,153.601120 126.788101,154.203461 127.977783,154.979614 
	C124.779274,157.161545 121.284851,159.169647 117.366257,160.803238 
	C116.544838,159.716660 116.292686,158.850784 115.727074,158.317215 
	C111.684212,154.503311 107.280106,151.023499 103.588402,146.902206 
	C100.807182,143.797348 99.088936,139.764069 96.540840,136.415482 
	C95.453758,134.986877 93.458145,134.249619 91.875381,133.198212 
	C91.458557,133.180984 91.041733,133.163773 90.279266,132.734909 
	C88.438049,131.271896 86.749908,130.412155 85.480263,129.136017 
	C79.980850,123.608490 74.691719,117.870049 69.140923,112.396111 
	C66.752098,110.040359 63.913029,108.141190 61.278511,106.034584 
	C61.634014,105.541321 61.989513,105.048065 62.345016,104.554802 
	C63.229530,104.367813 64.114052,104.180817 65.344124,103.963989 
	C66.793022,103.622871 67.896355,103.311592 69.167221,103.245407 
	C69.890129,103.660416 70.445526,103.830322 71.001205,104.383835 
	C71.372101,105.982620 71.387566,107.533508 72.169083,108.360252 
	C78.869621,115.448524 85.574783,122.542534 92.541214,129.366714 
	C100.802261,137.459076 109.361542,145.246140 117.710831,153.249741 
	C120.360344,155.789566 122.648163,155.311951 125.000549,152.998779 
z"/>
<path fill="#7D85FE" opacity="1.000000" stroke="none" 
	d="
M177.479279,123.068741 
	C169.670029,124.443039 166.132416,118.817245 161.850388,114.385246 
	C157.390839,109.769516 152.727448,105.349953 148.297791,100.706657 
	C147.248306,99.606544 146.776489,97.955345 146.063919,96.174774 
	C146.517807,95.808159 146.946732,95.824409 147.818970,96.139923 
	C148.822876,96.359764 149.383453,96.280350 149.944031,96.200928 
	C154.066635,97.037376 158.189240,97.873825 162.756607,99.144760 
	C163.247665,99.737663 163.326508,99.895187 163.330948,100.054787 
	C163.335281,100.209938 163.257690,100.505157 163.225739,100.503838 
	C161.352203,100.426743 159.479660,100.325226 158.571152,100.277107 
	C163.945801,104.946007 169.688583,109.569542 174.946823,114.690605 
	C176.921249,116.613525 177.770294,119.691978 179.132416,122.243622 
	C178.672623,122.512672 178.212830,122.781731 177.479279,123.068741 
z"/>
<path fill="#B24DFB" opacity="1.000000" stroke="none" 
	d="
M72.991241,129.968781 
	C62.078613,128.023239 51.417187,125.445427 42.027275,119.078056 
	C35.752674,114.823204 35.523312,112.272118 41.759003,107.850441 
	C44.025524,106.243271 46.697723,105.208206 49.447327,104.229439 
	C48.919106,106.446663 48.128387,108.346565 47.727077,109.310822 
	C49.838249,110.607712 51.707245,111.424088 53.152988,112.714615 
	C55.962784,115.222725 58.178772,118.570389 61.299824,120.509407 
	C64.848953,122.714378 66.216797,129.931046 72.991241,125.230324 
	C72.991241,127.370651 72.991241,128.669724 72.991241,129.968781 
z"/>
<path fill="#AA54FE" opacity="1.000000" stroke="none" 
	d="
M73.344910,130.082504 
	C72.991241,128.669724 72.991241,127.370651 72.991241,125.230324 
	C66.216797,129.931046 64.848953,122.714378 61.299824,120.509407 
	C58.178772,118.570389 55.962784,115.222725 53.152988,112.714615 
	C51.707245,111.424088 49.838249,110.607712 47.727077,109.310822 
	C48.128387,108.346565 48.919106,106.446663 49.808052,104.200699 
	C49.906284,103.854645 49.951946,103.906006 50.129589,103.871796 
	C50.579147,103.722054 50.782787,103.533012 50.918156,103.270454 
	C53.363583,102.617149 55.809010,101.963837 58.632286,101.558121 
	C60.035877,104.081573 60.593884,106.773582 62.177284,108.553284 
	C66.488091,113.398438 71.209282,117.881142 75.814392,122.460686 
	C78.236336,124.869171 81.539955,126.973717 78.019989,130.903229 
	C76.579514,130.667572 75.139046,130.431900 73.344910,130.082504 
z"/>
<path fill="#778BFB" opacity="1.000000" stroke="none" 
	d="
M179.479950,122.171257 
	C177.770294,119.691978 176.921249,116.613525 174.946823,114.690605 
	C169.688583,109.569542 163.945801,104.946007 158.571152,100.277107 
	C159.479660,100.325226 161.352203,100.426743 163.225739,100.503838 
	C163.257690,100.505157 163.335281,100.209938 163.330948,100.054787 
	C163.326508,99.895187 163.247665,99.737663 163.104828,99.304527 
	C170.756485,102.235603 178.866852,104.793922 186.134354,108.859116 
	C191.608276,111.921043 191.201645,114.292725 186.217758,118.298546 
	C184.305099,119.835854 181.970062,120.847649 179.479950,122.171257 
z"/>
<path fill="#AA55FD" opacity="1.000000" stroke="none" 
	d="
M91.906242,133.603378 
	C93.458145,134.249619 95.453758,134.986877 96.540840,136.415482 
	C99.088936,139.764069 100.807182,143.797348 103.588402,146.902206 
	C107.280106,151.023499 111.684212,154.503311 115.727074,158.317215 
	C116.292686,158.850784 116.544838,159.716660 116.973343,160.795074 
	C116.671364,161.233292 116.338127,161.305130 115.278427,161.220810 
	C113.211494,161.086838 111.871025,161.109039 110.530556,161.131241 
	C98.545479,158.335648 93.180084,151.742172 92.959801,139.774109 
	C92.924324,137.846634 92.292999,135.930130 91.906242,133.603378 
z"/>
<path fill="#986CFA" opacity="1.000000" stroke="none" 
	d="
M132.486771,147.871780 
	C131.589523,144.811279 130.982941,141.506790 130.347366,138.044296 
	C125.676514,137.166016 120.493675,131.929657 118.641037,126.555069 
	C115.302834,124.733528 112.706017,123.316536 110.053535,121.547401 
	C123.064095,120.878151 131.764450,127.244942 133.542084,138.881363 
	C133.971512,141.692307 133.067993,144.706848 132.486771,147.871780 
z"/>
<path fill="#AA55FD" opacity="1.000000" stroke="none" 
	d="
M78.415741,130.991760 
	C81.539955,126.973717 78.236336,124.869171 75.814392,122.460686 
	C71.209282,117.881142 66.488091,113.398438 62.177284,108.553284 
	C60.593884,106.773582 60.035877,104.081573 59.004478,101.478485 
	C59.398453,101.083679 59.798077,101.016121 60.914597,100.952553 
	C62.933632,100.552460 64.235779,100.148376 65.537926,99.744293 
	C66.475975,99.455101 67.414032,99.165909 68.623764,99.177269 
	C67.596489,100.983154 66.297523,102.488495 64.998566,103.993828 
	C64.114052,104.180817 63.229530,104.367813 62.345016,104.554802 
	C61.989513,105.048065 61.634014,105.541321 61.278511,106.034584 
	C63.913029,108.141190 66.752098,110.040359 69.140923,112.396111 
	C74.691719,117.870049 79.980850,123.608490 85.480263,129.136017 
	C86.749908,130.412155 88.438049,131.271896 89.970917,132.681396 
	C88.885078,132.735809 87.761948,132.432068 86.076447,131.766083 
	C84.627907,131.289215 83.741737,131.174622 82.855568,131.060028 
	C81.507545,131.066772 80.159523,131.073532 78.415741,130.991760 
z"/>
<path fill="#9D64F9" opacity="1.000000" stroke="none" 
	d="
M71.000916,104.000229 
	C70.445526,103.830322 69.890129,103.660416 69.518318,103.209351 
	C71.097427,101.101913 72.492950,99.275635 73.888474,97.449348 
	C76.948647,95.249611 78.804970,95.496330 80.671883,99.348534 
	C82.877838,103.900284 86.173805,107.923767 89.081284,112.505219 
	C89.165314,112.834167 89.062401,112.940582 88.600433,112.977249 
	C86.285004,112.598442 84.431541,112.182976 82.578087,111.767509 
	C83.891739,106.770912 79.867264,104.961769 76.862488,102.525314 
	C76.080498,107.124359 73.141045,104.009384 71.000916,104.000229 
z"/>
<path fill="#A15BFE" opacity="1.000000" stroke="none" 
	d="
M73.512688,97.365631 
	C72.492950,99.275635 71.097427,101.101913 69.350800,102.964249 
	C67.896355,103.311592 66.793022,103.622871 65.344124,103.963989 
	C66.297523,102.488495 67.596489,100.983154 68.918221,99.113541 
	C70.339630,98.260147 71.738266,97.771027 73.512688,97.365631 
z"/>
<path fill="#FAF4F8" opacity="1.000000" stroke="none" 
	d="
M32.349586,96.036285 
	C34.049389,94.620613 36.105629,93.244843 38.492706,91.758865 
	C38.741722,95.590393 36.696312,97.070763 32.349586,96.036285 
z"/>
<path fill="#A15BFE" opacity="1.000000" stroke="none" 
	d="
M65.280006,99.460190 
	C64.235779,100.148376 62.933632,100.552460 61.218712,100.935593 
	C62.211323,100.335114 63.616707,99.755600 65.280006,99.460190 
z"/>
<path fill="#F6F7F8" opacity="1.000000" stroke="none" 
	d="
M83.671265,65.760971 
	C84.037682,65.010826 84.663651,64.111977 85.563919,63.069878 
	C85.202415,63.821838 84.566612,64.717049 83.671265,65.760971 
z"/>
<path fill="#F4F8F8" opacity="1.000000" stroke="none" 
	d="
M186.202423,94.206680 
	C186.803223,94.569389 187.105301,94.994904 187.407364,95.420410 
	C186.960861,95.535187 186.514359,95.649963 186.067871,95.764740 
	C186.013138,95.266319 185.958405,94.767891 186.202423,94.206680 
z"/>
<path fill="#986CFA" opacity="1.000000" stroke="none" 
	d="
M131.357178,150.835480 
	C131.278351,150.123337 131.445526,149.199219 131.933228,148.216248 
	C132.036880,148.979431 131.820023,149.801468 131.357178,150.835480 
z"/>
<path fill="#A55AFD" opacity="1.000000" stroke="none" 
	d="
M110.833389,161.387207 
	C111.871025,161.109039 113.211494,161.086838 115.053246,161.092361 
	C114.081764,161.294434 112.608994,161.468796 110.833389,161.387207 
z"/>
<path fill="#A15BFE" opacity="1.000000" stroke="none" 
	d="
M83.043152,131.357330 
	C83.741737,131.174622 84.627907,131.289215 85.739883,131.654633 
	C85.054047,131.821838 84.142395,131.738235 83.043152,131.357330 
z"/>
<path fill="#FAF9F6" opacity="1.000000" stroke="none" 
	d="
M32.359612,101.896774 
	C32.635994,102.168564 32.749775,102.572235 32.806629,102.983757 
	C32.816391,103.054459 32.583717,103.158653 32.463036,103.247375 
	C32.367947,102.842018 32.272861,102.436668 32.359612,101.896774 
z"/>
<path fill="#FAF4F8" opacity="1.000000" stroke="none" 
	d="
M40.332672,90.994965 
	C40.504723,90.704071 40.960518,90.396057 41.698792,90.089905 
	C41.526321,90.387123 41.071369,90.682487 40.332672,90.994965 
z"/>
<path fill="#8181FD" opacity="1.000000" stroke="none" 
	d="
M149.627991,96.109978 
	C149.383453,96.280350 148.822876,96.359764 148.131775,96.220413 
	C148.438156,96.007446 148.875061,96.013237 149.627991,96.109978 
z"/>
<path fill="#A35BFD" opacity="1.000000" stroke="none" 
	d="
M44.804718,88.077538 
	C45.118584,88.087265 45.044498,88.489998 45.003220,88.690399 
	C44.790695,88.914650 44.619446,88.938499 43.971985,89.024117 
	C43.495773,89.085884 43.013123,89.037254 43.013123,89.037254 
	C43.505699,88.714104 43.998272,88.390961 44.804718,88.077538 
z"/>
<path fill="#FAF9F6" opacity="1.000000" stroke="none" 
	d="
M29.104515,99.212326 
	C29.010647,99.054344 29.503330,99.016083 29.750267,99.008804 
	C29.730930,99.124451 29.464657,99.247375 29.104515,99.212326 
z"/>
<path fill="#FAF4F8" opacity="1.000000" stroke="none" 
	d="
M26.891794,100.891129 
	C26.839506,100.829887 26.995386,100.384735 27.166241,100.222000 
	C27.571280,100.193916 27.747648,100.382607 27.697144,100.821503 
	C27.528090,101.017654 27.059963,101.064209 27.059963,101.064209 
	C27.059963,101.064209 26.944082,100.952370 26.891794,100.891129 
z"/>
<path fill="#FAF9F6" opacity="1.000000" stroke="none" 
	d="
M27.154163,101.274384 
	C27.059963,101.064209 27.528090,101.017654 27.763023,101.006538 
	C27.997957,100.995422 28.005457,101.493866 28.002773,101.746933 
	C28.000088,102.000000 27.992613,102.009544 27.992613,102.009544 
	C27.687174,101.915817 27.439091,101.740829 27.154163,101.274384 
z"/>
<path fill="#FAF9F6" opacity="1.000000" stroke="none" 
	d="
M28.004948,101.996170 
	C28.129658,102.138374 28.249506,102.284416 28.369352,102.430458 
	C28.281733,102.382141 28.194113,102.333824 28.049553,102.147522 
	C27.992613,102.009544 28.000088,102.000000 28.004948,101.996170 
z"/>
<path fill="#B24DFB" opacity="1.000000" stroke="none" 
	d="
M50.695858,103.288544 
	C50.782787,103.533012 50.579147,103.722054 50.099983,103.888855 
	C49.963211,103.615936 50.156818,103.404778 50.695858,103.288544 
z"/>
<path fill="#FAF4F8" opacity="1.000000" stroke="none" 
	d="
M42.923515,89.249496 
	C43.013123,89.037254 43.495773,89.085884 43.734489,89.128326 
	C43.715023,89.391525 43.456837,89.612274 42.937744,89.863968 
	C42.676838,89.894920 42.833904,89.461746 42.923515,89.249496 
z"/>
<path fill="#BF3BFB" opacity="1.000000" stroke="none" 
	d="
M5.999870,97.615173 
	C5.960299,98.619392 5.920538,99.252960 5.880776,99.886536 
	C5.651459,99.913925 5.422141,99.941322 5.192823,99.968719 
	C4.823154,97.884285 4.453484,95.799858 4.083814,93.715431 
	C4.563609,93.637634 5.043404,93.559837 5.523199,93.482048 
	C5.682026,94.736206 5.840853,95.990356 5.999870,97.615173 
z"/>
<path fill="#A15BFE" opacity="1.000000" stroke="none" 
	d="
M71.001205,104.383835 
	C73.141045,104.009384 76.080498,107.124359 76.862488,102.525314 
	C79.867264,104.961769 83.891739,106.770912 82.578087,111.767509 
	C84.431541,112.182976 86.285004,112.598442 88.548706,113.030190 
	C92.422897,117.314552 95.629250,121.827652 99.405975,125.798233 
	C106.625153,133.388000 114.189606,140.648590 121.558327,148.097641 
	C122.816483,149.369522 123.813965,150.899277 124.966209,152.654327 
	C122.648163,155.311951 120.360344,155.789566 117.710831,153.249741 
	C109.361542,145.246140 100.802261,137.459076 92.541214,129.366714 
	C85.574783,122.542534 78.869621,115.448524 72.169083,108.360252 
	C71.387566,107.533508 71.372101,105.982620 71.001205,104.383835 
z"/>
</svg>